<svg width="338" height="269" viewBox="0 0 338 269" fill="none" xmlns="http://www.w3.org/2000/svg">
<rect x="1" y="1" width="336" height="267" stroke="black" fill="white" stroke-width="2"/>
<rect x="23" y="169" width="86" height="78" fill="white" stroke="black" stroke-width="2"/>
<rect x="34" y="220" width="63" height="16" fill="#9AABBC"/>
<path d="M78.4831 195.79C78.5679 195.736 78.6256 195.649 78.6415 195.55L79.9956 187.139C80.0202 186.986 79.9409 186.834 79.8006 186.768L76.3718 185.133C74.8178 184.392 73.0863 184 71.3645 184H70.9742C70.7809 184 70.6242 184.157 70.6242 184.35C70.6242 186.835 68.5498 188.857 66 188.857C63.4502 188.857 61.3758 186.835 61.3758 184.35C61.3758 184.157 61.2191 184 61.0258 184H60.6355C58.9137 184 57.1822 184.392 55.6282 185.133L52.1994 186.768C52.0591 186.834 51.9798 186.986 52.0044 187.139L53.3585 195.55C53.3744 195.649 53.4321 195.736 53.5169 195.79C53.6017 195.843 53.7052 195.859 53.802 195.83L57.742 194.683L56.5298 211.625C56.523 211.722 56.5567 211.817 56.6228 211.889C56.6889 211.96 56.7817 212 56.879 212H75.121C75.2183 212 75.3111 211.96 75.3772 211.889C75.4433 211.817 75.477 211.722 75.4702 211.625L74.258 194.683L78.198 195.83C78.2941 195.859 78.3982 195.843 78.4831 195.79ZM73.9709 193.87C73.8605 193.837 73.742 193.861 73.653 193.933C73.564 194.005 73.5156 194.117 73.5238 194.231L74.745 211.3H57.255L58.4762 194.231C58.4844 194.117 58.436 194.005 58.347 193.933C58.2581 193.861 58.1395 193.837 58.0291 193.87L53.9865 195.047L52.7373 187.286L55.9293 185.764C57.39 185.068 59.0173 184.7 60.6355 184.7H60.6878C60.8724 187.409 63.1845 189.557 66 189.557C68.8156 189.557 71.1276 187.409 71.3122 184.7H71.3645C72.9827 184.7 74.61 185.068 76.0707 185.764L79.2627 187.286L78.0135 195.047L73.9709 193.87Z" fill="#9AABBC" stroke="#9AABBC" stroke-width="0.5"/>
<rect x="23" y="74" width="86" height="78" fill="white" stroke="black" stroke-width="2"/>
<rect x="34" y="125" width="63" height="16" fill="#00B657"/>
<path d="M58.404 94.1876C58.044 93.8996 57.756 93.7196 57.54 93.6116C57.144 93.3956 57.072 93.3596 57.072 92.7476V92.3876C57.432 92.3156 57.72 91.9916 57.72 91.6316V89.9756C57.72 89.5436 57.36 89.1836 56.928 89.1836H53.796C53.364 89.1836 53.004 89.5436 53.004 89.9756V91.6316C53.004 91.9916 53.256 92.2796 53.58 92.3876V92.8916C53.58 93.4676 53.508 93.5036 53.148 93.6836C52.932 93.7916 52.608 93.9716 52.248 94.2956C51.312 95.1596 50.772 96.3836 50.772 97.6436V114.132C50.772 114.78 51.276 115.284 51.924 115.284H58.8C59.448 115.284 59.952 114.78 59.952 114.132V97.6076C59.952 96.2756 59.376 95.0516 58.404 94.1876ZM53.76 89.9756C53.76 89.9396 53.796 89.9036 53.832 89.9036H56.964C57 89.9036 57.036 89.9396 57.036 89.9756V91.6316C57.036 91.6676 57 91.7036 56.964 91.7036H53.832C53.796 91.7036 53.76 91.6676 53.76 91.6316V89.9756ZM52.752 94.7636C53.04 94.5116 53.256 94.3676 53.472 94.2596C53.976 94.0076 54.3 93.7556 54.3 92.8556V92.3876H56.316V92.7476C56.316 93.7196 56.64 93.9716 57.18 94.2596C57.396 94.3676 57.612 94.5116 57.9 94.7636C58.692 95.4476 59.16 96.4556 59.196 97.4996H51.528C51.564 96.4556 51.996 95.4836 52.752 94.7636ZM51.528 98.1836H59.196V104.052H51.528V98.1836ZM58.8 114.528H51.96C51.708 114.528 51.528 114.348 51.528 114.096V104.772H59.196V114.096C59.232 114.348 59.016 114.528 58.8 114.528Z" fill="#00B657" stroke="#00B657" stroke-width="0.5"/>
<path d="M69.3478 94.1876C68.9878 93.8996 68.6998 93.7196 68.4838 93.6116C68.0878 93.3956 68.0158 93.3596 68.0158 92.7476V92.3876C68.3758 92.3156 68.6638 91.9916 68.6638 91.6316V89.9756C68.6638 89.5436 68.3038 89.1836 67.8718 89.1836H64.7398C64.3078 89.1836 63.9478 89.5436 63.9478 89.9756V91.6316C63.9478 91.9916 64.1998 92.2796 64.5238 92.3876V92.8916C64.5238 93.4676 64.4518 93.5036 64.0918 93.6836C63.8758 93.7916 63.5518 93.9716 63.1918 94.2956C62.2558 95.1596 61.7158 96.3836 61.7158 97.6436V114.132C61.7158 114.78 62.2198 115.284 62.8678 115.284H69.6718C70.3198 115.284 70.8238 114.78 70.8238 114.132V97.6076C70.8958 96.2756 70.3198 95.0516 69.3478 94.1876ZM64.7038 89.9756C64.7038 89.9396 64.7398 89.9036 64.7758 89.9036H67.9078C67.9438 89.9036 67.9798 89.9396 67.9798 89.9756V91.6316C67.9798 91.6676 67.9438 91.7036 67.9078 91.7036H64.7758C64.7398 91.7036 64.7038 91.6676 64.7038 91.6316V89.9756V89.9756ZM63.6958 94.7636C63.9838 94.5116 64.1998 94.3676 64.4158 94.2596C64.9198 94.0076 65.2438 93.7556 65.2438 92.8556V92.3876H67.2598V92.7476C67.2598 93.7196 67.5838 93.9716 68.1238 94.2596C68.3398 94.3676 68.5558 94.5116 68.8438 94.7636C69.6358 95.4476 70.1038 96.4556 70.1398 97.4996H62.5078C62.5078 96.4556 62.9398 95.4836 63.6958 94.7636ZM62.4718 98.1836H70.1398V104.052H62.4718V98.1836ZM69.7438 114.528H62.9038C62.6518 114.528 62.4718 114.348 62.4718 114.096V104.772H70.1398V114.096C70.1758 114.348 69.9598 114.528 69.7438 114.528Z" fill="#00B657" stroke="#00B657" stroke-width="0.5"/>
<path d="M80.2918 94.1876C79.9318 93.8996 79.6438 93.7196 79.4278 93.6116C79.0318 93.3956 78.9598 93.3596 78.9598 92.7476V92.3876C79.3198 92.3156 79.6078 91.9916 79.6078 91.6316V89.9756C79.6078 89.5436 79.2478 89.1836 78.8158 89.1836H75.7198C75.2878 89.1836 74.9278 89.5436 74.9278 89.9756V91.6316C74.9278 91.9916 75.1798 92.2796 75.5038 92.3876V92.8916C75.5038 93.4676 75.4318 93.5036 75.0718 93.6836C74.8558 93.7916 74.5318 93.9716 74.1718 94.2956C73.2358 95.1596 72.6958 96.3836 72.6958 97.6436V114.132C72.6958 114.78 73.1998 115.284 73.8478 115.284H80.6518C81.2998 115.284 81.8038 114.78 81.8038 114.132V97.6076C81.8398 96.2756 81.2638 95.0516 80.2918 94.1876ZM75.6478 89.9756C75.6478 89.9396 75.6838 89.9036 75.7198 89.9036H78.8518C78.8878 89.9036 78.9238 89.9396 78.9238 89.9756V91.6316C78.9238 91.6676 78.8878 91.7036 78.8518 91.7036H75.7198C75.6838 91.7036 75.6478 91.6676 75.6478 91.6316V89.9756ZM74.6398 94.7636C74.9278 94.5116 75.1438 94.3676 75.3598 94.2596C75.8638 94.0076 76.1878 93.7556 76.1878 92.8556V92.3876H78.2398V92.7476C78.2398 93.7196 78.5638 93.9716 79.1038 94.2596C79.3198 94.3676 79.5358 94.5116 79.8238 94.7636C80.6158 95.4476 81.0838 96.4556 81.1198 97.4996H73.4518C73.4518 96.4556 73.8838 95.4836 74.6398 94.7636ZM73.4158 98.1836H81.1198V104.052H73.4158V98.1836ZM80.6878 114.528H73.8478C73.5958 114.528 73.4158 114.348 73.4158 114.096V104.772H81.1198V114.096C81.1198 114.348 80.9038 114.528 80.6878 114.528Z" fill="#00B657" stroke="#00B657" stroke-width="0.5"/>
<rect x="126" y="169" width="86" height="78" fill="white" stroke="black" stroke-width="2"/>
<rect x="137" y="220" width="63" height="16" fill="#9AABBC"/>
<path d="M188.272 186.84H186.387V186.518C186.387 186.328 186.278 186.154 186.107 186.072C176.596 181.518 170.498 185.743 169.004 186.989C168.382 186.459 166.943 185.391 164.745 184.681C162.036 183.806 157.605 183.337 151.893 186.072C151.721 186.154 151.612 186.328 151.612 186.518V186.84H149.727C149.454 186.84 149.233 187.061 149.233 187.334V211.765C149.233 212.038 149.454 212.259 149.727 212.259H166.42C166.955 213.204 167.958 213.798 169.062 213.798C170.165 213.798 171.169 213.204 171.703 212.259H188.272C188.546 212.259 188.767 212.038 188.767 211.765V187.334C188.767 187.061 188.546 186.84 188.272 186.84ZM185.399 207.945C177.098 204.282 171.517 207.322 169.492 208.808C169.475 198.28 169.455 189.887 169.487 187.871C169.952 187.442 171.579 186.091 174.269 185.392V191.743C174.269 191.921 174.364 192.085 174.518 192.173C174.672 192.261 174.862 192.26 175.014 192.169L177.429 190.74L179.845 192.169C179.922 192.215 180.009 192.238 180.096 192.238C180.18 192.238 180.265 192.216 180.341 192.173C180.495 192.085 180.59 191.921 180.59 191.743V185.251C182.06 185.529 183.663 186.026 185.399 186.831L185.399 207.945ZM179.602 185.093V190.877L177.681 189.74C177.526 189.649 177.332 189.649 177.178 189.74L175.257 190.877V185.176C176.515 184.952 177.967 184.885 179.602 185.093ZM152.601 186.831C161.988 182.476 167.55 186.986 168.503 187.863C168.463 190.406 168.488 199.41 168.504 208.793C167.744 208.226 166.488 207.442 164.745 206.88C163.573 206.501 162.079 206.198 160.297 206.198C158.134 206.198 155.547 206.645 152.601 207.945L152.601 186.831ZM187.778 211.271H171.397C171.2 211.271 171.021 211.389 170.943 211.57C170.62 212.323 169.882 212.81 169.062 212.81C168.242 212.81 167.503 212.323 167.18 211.57C167.102 211.389 166.923 211.271 166.726 211.271H150.222V187.828H151.612V208.717C151.612 208.887 151.7 209.044 151.843 209.135C151.987 209.225 152.167 209.235 152.32 209.162C162.625 204.228 168.405 209.953 168.646 210.198L168.648 210.2C168.738 210.291 168.862 210.348 169 210.348H169.001C169.062 210.347 169.119 210.333 169.173 210.312C169.179 210.31 169.186 210.311 169.192 210.309C169.253 210.283 169.307 210.245 169.352 210.199L169.354 210.198C169.413 210.138 175.346 204.214 185.68 209.162C185.832 209.235 186.013 209.225 186.157 209.135C186.3 209.044 186.387 208.887 186.387 208.717V187.828H187.778V211.271Z" fill="#9AABBC" stroke="#9AABBC" stroke-width="0.5"/>
<rect x="126" y="74" width="86" height="78" fill="white" stroke="black" stroke-width="2"/>
<rect x="137" y="125" width="63" height="16" fill="#9AABBC"/>
<path d="M149.047 113.137C149 113.185 149 113.28 149 113.328V114.522C149 114.809 149.186 115 149.466 115C149.745 115 149.931 114.809 149.931 114.522V113.471L156.963 97.1338L152.958 114.427V114.475C152.958 114.522 152.958 114.57 152.958 114.618C152.958 114.666 152.958 114.666 152.958 114.713V114.761C152.958 114.809 153.005 114.809 153.005 114.857C153.051 114.904 153.098 114.952 153.144 114.952H153.191C153.237 115 153.331 115 153.377 115H184.576C184.623 115 184.716 115 184.763 114.952H184.809C184.856 114.904 184.902 114.904 184.949 114.857C184.949 114.809 184.995 114.809 184.995 114.761V114.713C184.995 114.666 184.995 114.666 184.995 114.618C184.995 114.57 184.995 114.522 184.995 114.475V114.427L180.991 96.9904L188.069 113.376V114.522C188.069 114.809 188.255 115 188.534 115C188.814 115 189 114.809 189 114.522V113.28C189 113.232 189 113.137 188.953 113.089L179.873 92.0701C179.827 92.0223 179.827 91.9745 179.78 91.9268C179.733 91.879 179.687 91.7834 179.64 91.7357L169.256 85.0478H169.21H169.163C169.116 85.0478 169.07 85 169.023 85C168.977 85 168.93 85 168.884 85.0478H168.837H168.79L158.406 91.7357C158.313 91.7834 158.22 91.879 158.22 92.0223C158.22 92.0701 158.173 92.0701 158.173 92.1178L149.047 113.137ZM159.012 92.5L168.511 86.3854C168.278 90.4459 166.602 107.404 154.076 113.662L159.012 92.5ZM168.511 114.045H155.38C163.761 109.315 167.114 99.9045 168.511 93.1688V114.045V114.045ZM169.442 93.2166C170.793 99.9045 174.192 109.315 182.574 113.997H169.442V93.2166ZM178.942 92.4522L183.878 113.662C171.305 107.404 169.675 90.3025 169.442 86.3854L178.942 92.4522Z" fill="#9AABBC" stroke="#9AABBC" stroke-width="0.5"/>
<rect x="229" y="169" width="86" height="78" fill="white" stroke="black" stroke-width="2"/>
<rect x="240" y="220" width="63" height="16" fill="#9AABBC"/>
<path d="M269.272 212.602C269.843 212.602 270.412 212.525 270.967 212.366C271.307 212.268 271.644 212.138 271.97 211.977C272.297 212.138 272.634 212.268 272.974 212.366C277.528 213.67 282.866 209.431 284.871 202.913C285.919 199.504 285.777 196.297 284.469 193.885C283.461 192.025 281.844 190.732 279.793 190.144C279.301 190.003 278.806 189.913 278.312 189.867C280.002 188.643 280.34 186.332 280.355 186.228C280.377 186.064 280.279 185.907 280.121 185.857C280.004 185.82 277.234 184.961 275.23 186.076C274.513 186.475 274.004 187.063 273.623 187.691L273.704 187.046C273.706 187.032 273.707 187.018 273.707 187.004C273.707 186.119 272.924 185.4 271.962 185.4C271 185.4 270.217 186.119 270.217 187.004C270.217 187.016 270.217 187.029 270.219 187.041L270.67 191.117C268.682 189.861 266.385 189.504 264.147 190.144C262.097 190.732 260.48 192.025 259.472 193.885C258.164 196.297 258.022 199.504 259.07 202.913C260.83 208.635 265.158 212.602 269.272 212.602ZM275.561 186.67C276.96 185.891 278.896 186.25 279.623 186.427C279.469 187.1 278.962 188.76 277.598 189.519C276.218 190.287 274.245 189.88 273.473 189.674C273.831 188.657 274.385 187.324 275.561 186.67ZM274.325 190.55C273.936 190.726 273.556 190.934 273.186 191.173L273.292 190.332C273.541 190.399 273.901 190.484 274.325 190.55ZM270.897 186.987C270.907 186.485 271.381 186.08 271.962 186.08C272.542 186.08 273.014 186.484 273.026 186.984L272.433 191.714C272.277 191.839 272.122 191.969 271.97 192.107C271.789 191.942 271.602 191.789 271.413 191.642L270.897 186.987ZM260.07 194.209C260.989 192.513 262.463 191.334 264.335 190.798C266.938 190.053 269.634 190.789 271.734 192.817C271.866 192.944 272.075 192.944 272.207 192.817C274.307 190.789 277.003 190.052 279.606 190.798C281.478 191.334 282.952 192.513 283.871 194.209C285.091 196.459 285.215 199.48 284.22 202.713C282.325 208.879 277.366 212.916 273.161 211.712C272.811 211.612 272.464 211.471 272.129 211.295C272.03 211.243 271.911 211.243 271.812 211.295C271.477 211.471 271.13 211.612 270.78 211.712C266.578 212.917 261.616 208.879 259.72 202.713C258.726 199.48 258.85 196.459 260.07 194.209Z" fill="#9AABBC" stroke="#9AABBC" stroke-width="0.5"/>
<rect x="229" y="74" width="86" height="78" fill="white" stroke="black" stroke-width="2"/>
<rect x="240" y="125" width="63" height="16" fill="#9AABBC"/>
<path d="M257.556 115.44C258.044 115.93 258.693 116.2 259.383 116.2C260.074 116.2 260.722 115.93 261.21 115.44L261.684 114.964C263.221 115.323 272.759 117.359 282.317 114.966L282.789 115.44C283.277 115.93 283.926 116.2 284.617 116.2C285.307 116.2 285.956 115.93 286.444 115.44C287.41 114.469 287.449 112.915 286.56 111.898C286.594 110.731 286.691 103.822 284.494 98.7843C285.283 98.5795 285.871 97.8673 285.871 97.0148V94.1884C285.871 93.177 285.048 92.3541 284.036 92.3541H284.005V92.2175C284.005 90.1019 282.284 88.3806 280.168 88.3806C279.354 88.3806 278.581 88.632 277.934 89.099C277.491 87.6031 276.116 86.5433 274.497 86.5433C273.555 86.5433 272.653 86.9196 271.988 87.572C271.351 86.4921 270.175 85.7998 268.898 85.7998C267.204 85.7998 265.759 86.9992 265.403 88.6129C264.983 88.4602 264.537 88.3806 264.09 88.3806C261.974 88.3806 260.253 90.1019 260.253 92.2175V92.3541H259.964C258.952 92.3541 258.129 93.177 258.129 94.1884V97.0148C258.129 97.8673 258.717 98.5795 259.506 98.7843C257.309 103.822 257.406 110.731 257.44 111.898C256.551 112.915 256.59 114.469 257.556 115.44ZM261.013 92.2175C261.013 90.5209 262.394 89.1406 264.09 89.1406C264.597 89.1406 265.081 89.261 265.528 89.4983C265.642 89.559 265.779 89.5577 265.891 89.4948C266.003 89.4324 266.077 89.3172 266.085 89.189C266.188 87.7146 267.423 86.5598 268.898 86.5598C270.066 86.5598 271.129 87.2962 271.541 88.3925C271.59 88.5236 271.708 88.617 271.847 88.6353C271.985 88.6539 272.123 88.5943 272.205 88.481C272.737 87.7436 273.593 87.3033 274.497 87.3033C275.958 87.3033 277.167 88.3982 277.31 89.8499C277.324 89.9972 277.423 90.1227 277.562 90.1715C277.702 90.221 277.858 90.1835 277.96 90.0774C278.546 89.4733 279.33 89.1406 280.168 89.1406C281.865 89.1406 283.245 90.5209 283.245 92.2175V92.3541H261.013V92.2175ZM258.889 97.0148V94.1884C258.889 93.5959 259.371 93.1141 259.964 93.1141H284.036C284.629 93.1141 285.111 93.5959 285.111 94.1884V97.0148C285.111 97.6073 284.629 98.0891 284.036 98.0891H259.964C259.371 98.0891 258.889 97.6073 258.889 97.0148ZM258.095 112.31C258.169 112.235 258.209 112.132 258.205 112.026C258.202 111.947 257.912 104.097 260.31 98.8491H283.69C286.088 104.097 285.798 111.947 285.795 112.026C285.791 112.132 285.831 112.235 285.905 112.31C286.617 113.025 286.617 114.188 285.905 114.904C285.561 115.249 285.103 115.44 284.617 115.44C284.13 115.44 283.672 115.249 283.328 114.904L282.703 114.276C282.608 114.181 282.47 114.142 282.339 114.176C272.082 116.814 261.764 114.203 261.661 114.176C261.531 114.143 261.392 114.18 261.297 114.276L260.672 114.904C260.328 115.249 259.87 115.44 259.383 115.44C258.896 115.44 258.439 115.249 258.095 114.904C257.383 114.188 257.383 113.025 258.095 112.31Z" fill="#9AABBC" stroke="#9AABBC" stroke-width="0.5"/>
<path d="M268.343 111.286C269.117 111.961 270.151 112.112 270.925 112.112C271.205 112.112 271.448 112.092 271.635 112.07V113.046C271.635 113.256 271.805 113.426 272.015 113.426C272.225 113.426 272.395 113.256 272.395 113.046V112.068C272.584 112.091 272.834 112.112 273.121 112.112C273.896 112.112 274.93 111.961 275.704 111.286C277.119 110.052 276.539 107.9 276.513 107.809C276.475 107.673 276.365 107.569 276.227 107.539C276.137 107.52 274.018 107.085 272.641 108.286C272.551 108.364 272.47 108.446 272.395 108.53V107.212C272.921 106.871 274.308 105.813 274.294 104.156C274.276 102.158 272.25 101.063 272.164 101.017C272.051 100.956 271.914 100.958 271.802 101.021C271.717 101.068 269.719 102.199 269.737 104.196C269.751 105.845 271.113 106.878 271.635 107.214V108.513C271.565 108.435 271.489 108.359 271.406 108.286C270.028 107.085 267.909 107.52 267.82 107.539C267.681 107.569 267.571 107.673 267.533 107.809C267.507 107.9 266.928 110.052 268.343 111.286ZM273.14 108.859C273.994 108.115 275.298 108.181 275.83 108.246C275.918 108.759 276.026 109.996 275.204 110.713C274.351 111.457 272.995 111.378 272.439 111.307C272.372 110.789 272.319 109.574 273.14 108.859ZM270.497 104.19C270.486 102.955 271.556 102.097 271.991 101.8C272.433 102.089 273.523 102.928 273.534 104.163C273.545 105.398 272.455 106.256 272.014 106.552C271.578 106.262 270.507 105.424 270.497 104.19ZM268.216 108.246C268.748 108.181 270.052 108.115 270.906 108.859C271.454 109.337 271.61 110.034 271.635 110.601V110.971C271.629 111.099 271.62 111.216 271.608 111.307C271.052 111.378 269.695 111.457 268.842 110.713C268.02 109.996 268.128 108.759 268.216 108.246Z" fill="#9AABBC" stroke="#9AABBC" stroke-width="0.5"/>
<path d="M284.249 38.7231C284.206 38.7779 284.174 38.8407 284.155 38.9078C284.136 38.975 284.131 39.0452 284.139 39.1144C284.156 39.2543 284.227 39.3818 284.338 39.469C284.448 39.5561 284.589 39.5957 284.729 39.579C284.798 39.5708 284.865 39.5489 284.926 39.5148C284.987 39.4807 285.04 39.4349 285.084 39.3801C285.557 38.7923 285.928 38.1289 286.181 37.4179C286.82 37.377 287.461 37.3888 288.097 37.4533C289.688 37.6703 290.269 39.743 290.662 40.7391C290.954 41.6011 291.818 42.0224 293.001 41.8825C293.5 43.7502 293.137 45.8827 291.036 46.087C287.738 46.2863 286.489 49.141 286.437 49.2624C286.381 49.3919 286.38 49.5381 286.432 49.6688C286.485 49.7995 286.587 49.904 286.717 49.9592C286.846 50.0145 286.993 50.016 287.123 49.9634C287.254 49.9109 287.358 49.8086 287.414 49.679C287.749 48.9685 288.266 48.3596 288.914 47.9149C289.561 47.4701 290.315 47.2055 291.099 47.1479C293.887 46.9355 294.723 44.1389 294.033 41.6393C293.977 41.3931 293.832 41.1759 293.627 41.0285C293.422 40.881 293.17 40.8134 292.919 40.8382C292.411 40.8924 291.786 40.8496 291.65 40.3525C291.183 39.1472 290.464 36.6787 288.199 36.3987C287.612 36.3407 287.022 36.3218 286.432 36.3421C286.566 35.3935 286.403 34.4267 285.966 33.5745C285.906 33.4733 285.815 33.3947 285.706 33.3509C285.597 33.3071 285.477 33.3006 285.364 33.3324C285.313 33.3465 284.099 33.6981 281.903 35.4401C280.485 36.5669 279.331 37.9902 278.522 39.6102C277.85 40.9444 277.986 43.6331 278.075 45.413L278.099 45.898C278.106 46.0388 278.168 46.1713 278.272 46.2664C278.376 46.3615 278.513 46.4114 278.654 46.4051C278.795 46.3987 278.927 46.3367 279.023 46.2326C279.118 46.1286 279.168 45.991 279.161 45.8502L279.137 45.3592C279.064 43.8957 278.925 41.1713 279.472 40.0888C280.212 38.6061 281.268 37.3033 282.565 36.2716C283.383 35.5942 284.276 35.0107 285.225 34.5321C285.463 35.262 285.709 36.8678 284.249 38.7231Z" fill="#00B657" stroke="#00B657" stroke-width="0.5"/>
<path d="M293.866 40.7614C293.928 40.7936 293.996 40.8132 294.065 40.8193C294.135 40.8253 294.205 40.8176 294.271 40.7965C294.338 40.7755 294.399 40.7415 294.453 40.6966C294.506 40.6518 294.55 40.5968 294.582 40.5349C295.976 37.8505 295.143 33.6705 294.695 31.425C294.664 31.2903 294.582 31.1728 294.466 31.0977C294.35 31.0226 294.209 30.9956 294.074 31.0226C293.938 31.0497 293.819 31.1285 293.74 31.2424C293.662 31.3562 293.631 31.4962 293.654 31.6325C294.076 33.7501 294.862 37.6923 293.64 40.0456C293.575 40.1706 293.563 40.3161 293.605 40.4504C293.647 40.5846 293.741 40.6965 293.866 40.7614V40.7614Z" fill="#00B657" stroke="#00B657" stroke-width="0.5"/>
<path d="M309.101 30.8989C307.842 30.5637 304.45 29.4861 303.379 28.4153C303.297 27.7115 302.888 25.3128 301.134 24.5945C292.806 21.1483 287.437 24.9131 285.93 32.5546C285.914 32.6238 285.912 32.6956 285.924 32.7656C285.936 32.8357 285.962 32.9026 286 32.9624C286.039 33.0223 286.089 33.0738 286.147 33.1139C286.206 33.154 286.272 33.182 286.342 33.1961C286.411 33.2102 286.483 33.2102 286.553 33.196C286.622 33.1819 286.689 33.1539 286.747 33.1137C286.806 33.0735 286.856 33.0219 286.894 32.9621C286.932 32.9022 286.958 32.8353 286.97 32.7652C288.691 24.4055 294.272 22.8904 300.731 25.5772C301.899 26.0562 302.289 27.9805 302.339 28.6808C302.935 30.2288 307.362 31.4756 308.441 31.8179C308.435 31.9587 308.415 32.0987 308.382 32.2356L307.362 32.0069C307.293 31.9904 307.222 31.9877 307.153 31.9989C307.083 32.0102 307.017 32.0351 306.957 32.0724C306.897 32.1096 306.845 32.1584 306.804 32.2158C306.764 32.2733 306.735 32.3383 306.719 32.407C306.704 32.4758 306.702 32.5469 306.715 32.6163C306.727 32.6856 306.753 32.7518 306.791 32.811C306.829 32.8702 306.879 32.9212 306.937 32.9611C306.995 33.0009 307.061 33.0288 307.13 33.0431L308.169 33.2764C308.149 34.1225 307.908 34.9485 307.468 35.6719C307.029 36.3952 306.407 36.9904 305.666 37.398H300.469C300.025 37.3989 299.592 37.5337 299.226 37.7847C298.861 38.0357 298.579 38.3912 298.419 38.8048C297.874 40.276 297.638 41.8437 297.726 43.41C297.814 44.9763 298.223 46.5078 298.929 47.909C298.998 48.032 299.112 48.1227 299.248 48.1611C299.383 48.1995 299.528 48.1826 299.651 48.1139C299.774 48.0453 299.865 47.9306 299.904 47.7951C299.942 47.6596 299.925 47.5144 299.856 47.3914C299.835 47.3518 297.754 43.5144 299.41 39.1839C299.493 38.9707 299.639 38.7876 299.828 38.6584C300.017 38.5292 300.24 38.4601 300.469 38.46H305.793C305.87 38.46 305.947 38.443 306.017 38.4104C307.013 37.9043 307.845 37.125 308.415 36.1637C308.985 35.2023 309.269 34.0986 309.235 32.9815C309.324 32.8495 309.908 31.1276 309.101 30.8989Z" fill="#00B657" stroke="#00B657" stroke-width="0.5"/>
<path d="M252.508 29.2326H249.805V26.4883C249.805 26.3533 249.749 26.225 249.65 26.1329C249.551 26.0407 249.419 25.9914 249.283 26.0012C248.547 26.0473 247.818 26.0736 247.112 26.1033C243.296 26.2546 239.685 26.3961 236.503 29.0747C233.321 26.3994 229.711 26.2546 225.892 26.1033C225.185 26.0736 224.453 26.0473 223.72 26.0012C223.585 25.9914 223.452 26.0407 223.353 26.1329C223.254 26.225 223.198 26.3533 223.198 26.4883V29.2326H220.492C220.221 29.2326 220 29.4531 220 29.7229V50.5097C220 50.7795 220.221 51 220.492 51H252.508C252.779 51 253 50.7795 253 50.5097V29.7229C252.997 29.4498 252.779 29.2326 252.508 29.2326ZM247.148 27.0806C247.693 27.0575 248.254 27.0378 248.821 27.0082V46.7683C244.002 46.584 240.385 47.4429 236.992 49.5982V41.783L242.022 38.8873C242.411 38.6635 242.646 38.2621 242.646 37.8112C242.646 37.3604 242.411 36.959 242.022 36.7352L236.992 33.8395V29.9401C239.949 27.3636 243.289 27.2319 247.148 27.0806ZM241.53 37.5875C241.649 37.6566 241.662 37.7685 241.662 37.8145C241.662 37.8606 241.649 37.9725 241.53 38.0416L232.873 43.0236C232.754 43.0927 232.648 43.0466 232.609 43.0236C232.569 43.0005 232.476 42.9347 232.476 42.7965V32.8325C232.476 32.6976 232.569 32.6285 232.609 32.6055C232.632 32.5923 232.681 32.5693 232.741 32.5693C232.78 32.5693 232.823 32.5792 232.869 32.6055L241.53 37.5875ZM224.179 27.0049C224.746 27.0345 225.304 27.0575 225.852 27.0773C229.711 27.2286 233.054 27.3636 236.012 29.9401V33.2801L233.364 31.7565C232.975 31.5328 232.51 31.5328 232.12 31.7565C231.731 31.9803 231.496 32.3817 231.496 32.8325V42.7998C231.496 43.2473 231.731 43.6521 232.12 43.8758C232.315 43.9877 232.529 44.0437 232.744 44.0437C232.958 44.0437 233.173 43.9877 233.368 43.8758L236.015 42.3523V49.5949C232.622 47.4396 229.004 46.5807 224.185 46.765V27.0049H224.179ZM220.984 30.2099H223.195V47.275C223.195 47.4099 223.251 47.5383 223.347 47.6304C223.446 47.7226 223.578 47.7719 223.71 47.7653C228.248 47.5251 231.668 48.2063 234.817 50.0194H220.984V30.2099ZM252.016 50.0227H238.18C241.326 48.2096 244.745 47.5284 249.287 47.7686C249.422 47.7752 249.554 47.7258 249.65 47.6337C249.749 47.5416 249.802 47.4132 249.802 47.2783V30.2099H252.013V50.0227H252.016Z" fill="#00B657" stroke="#00B657" stroke-width="0.5"/>
<path d="M171.048 50.3002C171.26 50.4246 171.498 50.4868 171.736 50.4868C171.971 50.4868 172.205 50.4264 172.414 50.3065C178.673 46.7138 187.252 39.8181 187.295 32.5245C187.325 27.296 183.1 23.0178 177.876 22.9878C175.973 22.9878 173.998 23.8908 171.847 25.7464C169.72 23.8765 167.745 22.9552 165.813 22.9314C160.602 22.9314 156.338 27.1563 156.309 32.3509C156.287 39.6301 164.783 46.6293 171.048 50.3002ZM157.222 32.3549C157.249 27.6642 161.103 23.8478 165.807 23.8478C167.592 23.8698 169.466 24.8014 171.537 26.6968C171.709 26.8552 171.974 26.8565 172.149 26.6999C174.245 24.8188 176.118 23.9042 177.873 23.9042C182.591 23.9315 186.408 27.7962 186.382 32.5191C186.374 33.93 186.017 35.3097 185.428 36.6375H179.083C179.014 36.6375 178.953 36.5964 178.928 36.5306L176.991 31.5504C176.841 31.1647 176.493 30.902 176.083 30.864C175.675 30.8246 175.284 31.0197 175.068 31.3687L170.25 39.1165C170.199 39.1979 170.125 39.201 170.086 39.1966C170.047 39.1916 169.977 39.1702 169.948 39.0811L168.18 33.5868C168.051 33.1876 167.713 32.904 167.298 32.8471C166.886 32.7876 166.485 32.9711 166.257 33.3161L164.4 36.0769C164.367 36.1252 164.316 36.152 164.256 36.152H157.994C157.503 34.9214 157.218 33.6495 157.222 32.3549ZM164.256 37.0684C164.616 37.0684 164.951 36.8913 165.155 36.5919L167.016 33.8257C167.065 33.7519 167.135 33.7496 167.174 33.755C167.213 33.7604 167.283 33.7823 167.311 33.8691L169.079 39.3635C169.21 39.7693 169.553 40.0539 169.974 40.1062C170.019 40.1116 170.065 40.1147 170.11 40.1147C170.48 40.1147 170.822 39.9259 171.025 39.602L175.844 31.8529C175.89 31.7781 175.96 31.7719 175.999 31.7764C176.038 31.7799 176.107 31.7987 176.14 31.8833L178.075 36.8586C178.232 37.2743 178.636 37.5539 179.083 37.5539H184.981C181.743 43.6286 173.858 48.4215 171.96 49.5114C171.818 49.5924 171.649 49.5919 171.509 49.5091C169.582 48.3803 161.468 43.3479 158.404 37.0684H164.256V37.0684Z" fill="#00B657" stroke="#00B657" stroke-width="0.5"/>
<g clip-path="url(#clip0_1_157)">
<path d="M120.292 36.2897C120.294 35.1976 120.152 34.1099 119.871 33.0546C119.77 32.6668 119.649 32.2846 119.508 31.9096C120.14 30.8562 120.401 29.6219 120.251 28.4027C120.101 27.1836 119.548 26.0496 118.679 25.181C117.811 24.3123 116.677 23.759 115.458 23.6088C114.238 23.4586 113.004 23.7201 111.951 24.352C111.577 24.2113 111.196 24.0903 110.809 23.9894C108.687 23.4309 106.457 23.4309 104.335 23.9894C103.947 24.0904 103.565 24.2117 103.19 24.3528C102.137 23.7212 100.902 23.4597 99.6835 23.6099C98.4645 23.7601 97.3307 24.3133 96.4622 25.1817C95.5937 26.05 95.0403 27.1837 94.8899 28.4026C94.7396 29.6215 95.0008 30.8558 95.6322 31.9092C95.4916 32.283 95.3706 32.6639 95.2696 33.0503C94.7082 35.172 94.7082 37.4032 95.2696 39.5249C95.3707 39.9127 95.492 40.2948 95.6331 40.6699C95.0015 41.7232 94.74 42.9573 94.8902 44.1763C95.0404 45.3952 95.5936 46.529 96.462 47.3975C97.3303 48.266 98.464 48.8194 99.6829 48.9698C100.902 49.1202 102.136 48.8589 103.189 48.2275C103.563 48.3677 103.944 48.4886 104.33 48.5897H104.336C106.456 49.1506 108.685 49.1506 110.805 48.5897H110.81C111.196 48.4888 111.577 48.3679 111.951 48.2275C113.004 48.8592 114.238 49.1207 115.457 48.9704C116.676 48.8202 117.81 48.2669 118.679 47.3984C119.547 46.5299 120.1 45.396 120.251 44.177C120.401 42.958 120.139 41.7237 119.508 40.6703C119.648 40.2965 119.769 39.9156 119.87 39.5291C120.152 38.4724 120.294 37.3833 120.292 36.2897V36.2897ZM111.842 47.3662C111.587 47.4663 111.325 47.5537 111.059 47.6351L110.357 41.9993C111.628 41.3754 112.656 40.3473 113.28 39.0762L118.915 39.7785C118.834 40.0448 118.745 40.3086 118.645 40.5651C118.051 42.1122 117.138 43.5171 115.966 44.6888C114.794 45.8604 113.389 46.7726 111.842 47.3662V47.3662ZM104.081 47.6351C103.815 47.5537 103.553 47.4655 103.299 47.3662H103.294C101.748 46.7723 100.343 45.86 99.1718 44.6883C98.0005 43.5167 97.0886 42.1119 96.4952 40.5651V40.5605C96.3951 40.306 96.3078 40.0444 96.2263 39.7785L101.862 39.0762C102.486 40.3489 103.515 41.3782 104.788 42.0023L104.081 47.6351ZM95.6963 36.2897C95.6972 35.3937 95.8011 34.5007 96.0058 33.6283L101.525 34.32C101.103 35.6007 101.103 36.983 101.525 38.2637L96.0054 38.9512C95.801 38.0787 95.6973 37.1858 95.6963 36.2897V36.2897ZM103.298 25.2132C103.553 25.1136 103.815 25.0258 104.081 24.9444L104.788 30.5785C103.513 31.2027 102.483 32.2331 101.859 33.5075L96.2246 32.8014C96.3061 32.5347 96.3943 32.2709 96.4952 32.0143C97.0893 30.4673 98.0019 29.0623 99.1739 27.8907C100.346 26.719 101.751 25.8068 103.298 25.2132V25.2132ZM102.057 36.2897C102.057 35.1994 102.381 34.1336 102.986 33.227C103.592 32.3204 104.453 31.6138 105.46 31.1966C106.468 30.7793 107.576 30.6701 108.646 30.8828C109.715 31.0956 110.697 31.6206 111.468 32.3916C112.239 33.1626 112.764 34.1449 112.977 35.2142C113.19 36.2836 113.08 37.3921 112.663 38.3994C112.246 39.4067 111.539 40.2677 110.633 40.8735C109.726 41.4792 108.66 41.8025 107.57 41.8025C106.108 41.8009 104.707 41.2195 103.674 40.186C102.64 39.1525 102.059 37.7513 102.057 36.2897V36.2897ZM111.059 24.9448C111.325 25.0258 111.589 25.1144 111.845 25.2149C113.392 25.809 114.797 26.7216 115.969 27.8937C117.141 29.0657 118.053 30.4709 118.647 32.0182C118.746 32.2726 118.834 32.5347 118.915 32.801L113.281 33.5075C112.657 32.2348 111.628 31.2055 110.355 30.5814L111.059 24.9448ZM119.444 36.2897C119.443 37.1858 119.339 38.0788 119.134 38.9512L113.614 38.2633C114.036 36.9826 114.036 35.6002 113.614 34.3195L119.133 33.6279C119.338 34.5004 119.442 35.3935 119.444 36.2897V36.2897ZM119.444 29.0807C119.443 29.6992 119.32 30.3114 119.08 30.8817C117.823 28.1962 115.664 26.0367 112.979 24.7794C113.687 24.4818 114.459 24.3641 115.224 24.4369C115.989 24.5096 116.725 24.7705 117.365 25.1963C118.005 25.6221 118.529 26.1996 118.892 26.8773C119.255 27.555 119.444 28.312 119.444 29.0807V29.0807ZM110.231 24.726L109.544 30.246C108.263 29.8238 106.881 29.8238 105.6 30.246L104.909 24.7255C106.66 24.3229 108.48 24.323 110.231 24.726V24.726ZM100.361 24.416C100.979 24.4165 101.592 24.5401 102.162 24.7794C99.4764 26.0365 97.317 28.1958 96.0597 30.8812C95.7621 30.1725 95.6444 29.4011 95.7171 28.6358C95.7899 27.8706 96.0508 27.1352 96.4766 26.4952C96.9024 25.8552 97.4798 25.3304 98.1576 24.9676C98.8353 24.6049 99.5922 24.4154 100.361 24.416V24.416ZM100.361 48.1635C99.5926 48.163 98.8363 47.9729 98.1591 47.61C97.4819 47.2471 96.9047 46.7226 96.4789 46.0831C96.053 45.4436 95.7916 44.7089 95.7178 43.9441C95.644 43.1793 95.7601 42.4082 96.0559 41.6991C97.3141 44.3864 99.475 46.5473 102.162 47.8056C101.592 48.0432 100.979 48.1649 100.361 48.1635V48.1635ZM104.909 47.8539L105.6 42.3347C106.881 42.7569 108.263 42.7569 109.544 42.3347L110.231 47.8539C108.48 48.2559 106.66 48.2559 104.909 47.8539V47.8539ZM114.779 48.1635C114.161 48.1629 113.548 48.0394 112.978 47.8001C115.664 46.5429 117.823 44.3836 119.08 41.6982C119.378 42.407 119.496 43.1784 119.423 43.9436C119.35 44.7089 119.089 45.4443 118.663 46.0843C118.238 46.7243 117.66 47.2491 116.982 47.6118C116.305 47.9746 115.548 48.1641 114.779 48.1635V48.1635Z" fill="#00B657" stroke="#00B657" stroke-width="0.5"/>
</g>
<path d="M56.8935 28.8398C56.8803 28.8065 56.8624 28.7754 56.8401 28.7476C56.8353 28.7417 56.832 28.7355 56.8269 28.7297C56.8039 28.704 56.7775 28.6806 56.7472 28.662C56.7406 28.658 56.7329 28.6561 56.7259 28.6525C56.7223 28.6506 56.7201 28.647 56.7164 28.6452L42.4502 21.695C42.3493 21.6456 42.2308 21.6456 42.1298 21.695L27.8636 28.6452C27.8599 28.647 27.8577 28.6506 27.8541 28.6525C27.8471 28.6561 27.8398 28.658 27.8329 28.662C27.8025 28.6806 27.7765 28.7037 27.7531 28.7297C27.748 28.7351 27.7447 28.7417 27.74 28.7476C27.7176 28.7757 27.6997 28.8065 27.6866 28.8398C27.6833 28.8482 27.6792 28.8562 27.6763 28.865C27.6653 28.8997 27.658 28.9363 27.658 28.974V43.2402C27.658 43.3774 27.7348 43.5032 27.8566 43.5658L42.1228 50.8818C42.1276 50.8843 42.1331 50.8832 42.1378 50.8854C42.1865 50.9074 42.2377 50.922 42.29 50.922C42.3423 50.922 42.3935 50.9074 42.4418 50.8854C42.4466 50.8832 42.4521 50.8843 42.4568 50.8818L56.723 43.5658C56.8452 43.5032 56.922 43.3774 56.922 43.2402V28.974C56.922 28.9363 56.9147 28.8997 56.9034 28.8646C56.9008 28.8559 56.8968 28.8482 56.8935 28.8398ZM42.29 35.8788L35.9006 32.6024L49.0987 25.7476L55.7383 28.9824L42.29 35.8788ZM42.29 22.4306L48.2796 25.3486L35.1021 32.1927L28.8417 28.9824L42.29 22.4306ZM28.3896 29.5728L41.9242 36.5135V49.9574L28.3896 43.0167V29.5728ZM56.1904 43.0167L42.6558 49.9574V36.5135L56.1904 29.5728V43.0167Z" fill="#00B657" stroke="#00B657" stroke-width="0.5"/>
<path d="M46.888 128.6V137H48.976V128.6H46.888ZM49.888 137C50.808 137 51.604 136.828 52.276 136.484C52.948 136.14 53.468 135.656 53.836 135.032C54.204 134.4 54.388 133.656 54.388 132.8C54.388 131.936 54.204 131.192 53.836 130.568C53.468 129.944 52.948 129.46 52.276 129.116C51.604 128.772 50.808 128.6 49.888 128.6H48.232V130.4H49.816C50.136 130.4 50.444 130.44 50.74 130.52C51.044 130.6 51.308 130.732 51.532 130.916C51.764 131.1 51.948 131.348 52.084 131.66C52.22 131.964 52.288 132.344 52.288 132.8C52.288 133.256 52.22 133.64 52.084 133.952C51.948 134.256 51.764 134.5 51.532 134.684C51.308 134.868 51.044 135 50.74 135.08C50.444 135.16 50.136 135.2 49.816 135.2H48.232V137H49.888ZM55.1848 134.24C55.1848 134.816 55.3208 135.32 55.5928 135.752C55.8648 136.184 56.2408 136.52 56.7208 136.76C57.2008 137 57.7408 137.12 58.3408 137.12C58.9408 137.12 59.4768 137 59.9488 136.76C60.4288 136.52 60.8048 136.184 61.0768 135.752C61.3568 135.32 61.4968 134.816 61.4968 134.24C61.4968 133.656 61.3568 133.148 61.0768 132.716C60.8048 132.284 60.4288 131.948 59.9488 131.708C59.4768 131.468 58.9408 131.348 58.3408 131.348C57.7408 131.348 57.2008 131.468 56.7208 131.708C56.2408 131.948 55.8648 132.284 55.5928 132.716C55.3208 133.148 55.1848 133.656 55.1848 134.24ZM57.0448 134.24C57.0448 133.952 57.1048 133.704 57.2248 133.496C57.3448 133.288 57.5008 133.128 57.6928 133.016C57.8848 132.904 58.1008 132.848 58.3408 132.848C58.5728 132.848 58.7848 132.904 58.9768 133.016C59.1768 133.128 59.3328 133.288 59.4448 133.496C59.5648 133.704 59.6248 133.952 59.6248 134.24C59.6248 134.528 59.5648 134.776 59.4448 134.984C59.3328 135.184 59.1768 135.34 58.9768 135.452C58.7848 135.564 58.5728 135.62 58.3408 135.62C58.1008 135.62 57.8848 135.564 57.6928 135.452C57.5008 135.34 57.3448 135.184 57.2248 134.984C57.1048 134.776 57.0448 134.528 57.0448 134.24ZM66.1749 133.64V137H68.0589V133.448C68.0589 132.784 67.9029 132.268 67.5909 131.9C67.2789 131.532 66.7789 131.348 66.0909 131.348C65.6829 131.348 65.3389 131.432 65.0589 131.6C64.7869 131.768 64.5709 132.004 64.4109 132.308V131.48H62.5869V137H64.4109V133.64C64.4109 133.424 64.4509 133.24 64.5309 133.088C64.6109 132.936 64.7229 132.82 64.8669 132.74C65.0109 132.66 65.1789 132.62 65.3709 132.62C65.6589 132.62 65.8629 132.708 65.9829 132.884C66.1109 133.06 66.1749 133.312 66.1749 133.64ZM70.8933 135.272C70.8933 135.136 70.9253 135.024 70.9893 134.936C71.0533 134.84 71.1493 134.768 71.2773 134.72C71.4053 134.672 71.5773 134.648 71.7933 134.648C72.0733 134.648 72.3373 134.688 72.5853 134.768C72.8413 134.84 73.0653 134.948 73.2573 135.092V134.288C73.1613 134.184 73.0173 134.084 72.8253 133.988C72.6333 133.892 72.4013 133.812 72.1293 133.748C71.8653 133.684 71.5653 133.652 71.2293 133.652C70.5413 133.652 70.0093 133.808 69.6333 134.12C69.2573 134.424 69.0693 134.84 69.0693 135.368C69.0693 135.744 69.1573 136.064 69.3333 136.328C69.5173 136.592 69.7573 136.792 70.0533 136.928C70.3573 137.056 70.6853 137.12 71.0373 137.12C71.3893 137.12 71.7173 137.06 72.0213 136.94C72.3253 136.812 72.5733 136.628 72.7653 136.388C72.9573 136.14 73.0533 135.84 73.0533 135.488L72.8613 134.768C72.8613 135.024 72.8053 135.24 72.6933 135.416C72.5813 135.592 72.4373 135.724 72.2613 135.812C72.0853 135.9 71.8933 135.944 71.6853 135.944C71.5413 135.944 71.4093 135.92 71.2893 135.872C71.1693 135.816 71.0733 135.74 71.0013 135.644C70.9293 135.54 70.8933 135.416 70.8933 135.272ZM70.0893 133.172C70.1693 133.124 70.2973 133.064 70.4733 132.992C70.6493 132.912 70.8533 132.844 71.0853 132.788C71.3253 132.732 71.5693 132.704 71.8173 132.704C71.9853 132.704 72.1333 132.72 72.2613 132.752C72.3973 132.784 72.5093 132.836 72.5973 132.908C72.6853 132.98 72.7493 133.068 72.7893 133.172C72.8373 133.268 72.8613 133.384 72.8613 133.52V137H74.6013V133.112C74.6013 132.728 74.4893 132.404 74.2653 132.14C74.0413 131.876 73.7373 131.676 73.3533 131.54C72.9693 131.396 72.5333 131.324 72.0453 131.324C71.5253 131.324 71.0453 131.392 70.6053 131.528C70.1653 131.664 69.7893 131.808 69.4773 131.96L70.0893 133.172ZM75.31 131.48V132.98H79.006V131.48H75.31ZM76.282 129.56V137H78.022V129.56H76.282ZM82.5863 137.12C83.2903 137.12 83.8863 136.984 84.3743 136.712C84.8703 136.44 85.2623 136.032 85.5503 135.488L83.9303 135.092C83.7943 135.332 83.6103 135.512 83.3783 135.632C83.1543 135.752 82.8823 135.812 82.5623 135.812C82.2823 135.812 82.0463 135.752 81.8543 135.632C81.6623 135.504 81.5183 135.32 81.4223 135.08C81.3263 134.84 81.2783 134.552 81.2783 134.216C81.2863 133.848 81.3343 133.544 81.4223 133.304C81.5183 133.056 81.6583 132.872 81.8423 132.752C82.0263 132.632 82.2543 132.572 82.5263 132.572C82.7423 132.572 82.9303 132.62 83.0903 132.716C83.2503 132.812 83.3743 132.948 83.4623 133.124C83.5503 133.3 83.5943 133.508 83.5943 133.748C83.5943 133.804 83.5783 133.876 83.5463 133.964C83.5223 134.044 83.4903 134.112 83.4503 134.168L83.8823 133.616H80.4743V134.624H85.5143C85.5303 134.568 85.5383 134.5 85.5383 134.42C85.5383 134.332 85.5383 134.244 85.5383 134.156C85.5383 133.564 85.4223 133.06 85.1903 132.644C84.9583 132.228 84.6223 131.912 84.1823 131.696C83.7423 131.472 83.2023 131.36 82.5623 131.36C81.9223 131.36 81.3663 131.476 80.8943 131.708C80.4303 131.94 80.0743 132.272 79.8263 132.704C79.5783 133.136 79.4543 133.648 79.4543 134.24C79.4543 134.824 79.5823 135.332 79.8383 135.764C80.0943 136.196 80.4543 136.532 80.9183 136.772C81.3903 137.004 81.9463 137.12 82.5863 137.12Z" fill="white"/>
<defs>
<clipPath id="clip0_1_157">
<rect width="27.14" height="27.14" fill="white" transform="translate(94 22.7197)"/>
</clipPath>
</defs>
</svg>
