<svg width="338" height="269" viewBox="0 0 338 269" fill="none" xmlns="http://www.w3.org/2000/svg">
<rect x="1" y="1" width="336" height="267" stroke="black" fill="white" stroke-width="2"/>
<rect x="23" y="74" width="86" height="78" fill="white" stroke="black" stroke-width="2"/>
<rect x="24" y="135" width="84" height="2" fill="black"/>
<path d="M28 143.376C28.0076 145.627 31.7442 147.875 31.9031 147.969C31.9376 147.99 31.9765 148 32.0155 148C32.0548 148 32.0944 147.99 32.1288 147.969C32.2875 147.873 36.007 145.604 36 143.353C35.9976 141.736 34.8716 141 33.8203 141C32.8631 141.002 32.2878 141.578 31.9976 142.107C31.704 141.581 31.1265 141.01 30.1687 141.01C29.1223 141.013 27.9973 141.755 28 143.376ZM30.1754 141.433C31.4542 141.433 31.7762 142.679 31.7889 142.732C31.8124 142.827 31.8995 142.894 31.9991 142.894C31.9988 142.894 31.9994 142.894 31.9991 142.894C32.0996 142.894 32.1873 142.826 32.2095 142.73C32.2126 142.717 32.5302 141.426 33.8261 141.422C34.6916 141.422 35.5657 142.019 35.5675 143.354C35.5733 145.167 32.6319 147.143 32.0143 147.538C31.3936 147.147 28.438 145.187 28.4322 143.375C28.43 142.037 29.3035 141.435 30.1754 141.433Z" fill="#00B657"/>
<path d="M30.1754 141.433C31.4542 141.433 31.7762 142.679 31.7889 142.732C31.8124 142.827 31.8995 142.894 31.9991 142.894C32.0996 142.894 32.1873 142.826 32.2095 142.73C32.2126 142.717 32.5302 141.426 33.8261 141.422C34.6916 141.422 35.5657 142.019 35.5675 143.354C35.5733 145.167 32.6319 147.143 32.0143 147.538C31.3936 147.147 28.438 145.187 28.4322 143.375C28.43 142.037 29.3035 141.435 30.1754 141.433Z" fill="#00B657"/>
<path d="M58.5701 98.0007L58.5703 98.0005L58.5601 97.9924C58.1917 97.6977 57.8903 97.5077 57.6559 97.39C57.4385 97.2714 57.3964 97.2405 57.3718 97.1995C57.3455 97.1555 57.322 97.0645 57.322 96.7476V96.5706C57.6917 96.4141 57.97 96.0494 57.97 95.6316V93.9756C57.97 93.4055 57.498 92.9336 56.928 92.9336H53.796C53.2259 92.9336 52.754 93.4055 52.754 93.9756V95.6316C52.754 96.0476 53.0027 96.3796 53.33 96.5518V96.8916C53.33 97.1902 53.3064 97.2716 53.2854 97.3061C53.2678 97.3351 53.2386 97.3588 53.0362 97.46C52.8079 97.5741 52.4629 97.7658 52.0807 98.1098L52.0807 98.1098L52.0784 98.1119C51.0918 99.0226 50.522 100.313 50.522 101.644V118.132C50.522 118.918 51.1379 119.534 51.924 119.534H58.8C59.586 119.534 60.202 118.918 60.202 118.132V101.608C60.202 100.202 59.5935 98.9105 58.5701 98.0007ZM52.9206 98.9482C53.1943 98.7092 53.3918 98.5792 53.5838 98.4832C53.8415 98.3543 54.098 98.2052 54.2802 97.9434C54.4643 97.6788 54.55 97.3334 54.55 96.8556V96.6376H56.066V96.7476C56.066 97.2583 56.1505 97.6212 56.3381 97.8997C56.5239 98.1757 56.7897 98.3348 57.0623 98.4802L57.0623 98.4803L57.0682 98.4832C57.2611 98.5796 57.4596 98.7104 57.7353 98.9517L57.7366 98.9528C58.4088 99.5334 58.8324 100.367 58.9277 101.25H51.7955C51.8855 100.371 52.2775 99.5624 52.9206 98.9482ZM51.778 118.096V109.022H58.946V118.096V118.113L58.9485 118.131C58.9544 118.172 58.9417 118.203 58.9157 118.229C58.8857 118.259 58.8412 118.278 58.8 118.278H51.96C51.846 118.278 51.778 118.21 51.778 118.096ZM54.01 95.4536V94.1536H56.786V95.4536H54.01ZM51.778 102.434H58.946V107.802H51.778V102.434Z" fill="#00B657" stroke="#00B657" stroke-width="0.5"/>
<path d="M69.5139 98.0007L69.5141 98.0005L69.504 97.9924C69.1356 97.6977 68.8342 97.5077 68.5997 97.39C68.3823 97.2714 68.3403 97.2405 68.3157 97.1995C68.2893 97.1555 68.2658 97.0645 68.2658 96.7476V96.5706C68.6356 96.4141 68.9138 96.0494 68.9138 95.6316V93.9756C68.9138 93.4055 68.4419 92.9336 67.8718 92.9336H64.7398C64.1697 92.9336 63.6978 93.4055 63.6978 93.9756V95.6316C63.6978 96.0476 63.9465 96.3796 64.2738 96.5518V96.8916C64.2738 97.1902 64.2503 97.2716 64.2293 97.3061C64.2116 97.3351 64.1824 97.3588 63.98 97.46C63.7518 97.5741 63.4067 97.7658 63.0246 98.1098L63.0246 98.1098L63.0223 98.1119C62.0357 99.0226 61.4658 100.313 61.4658 101.644V118.132C61.4658 118.918 62.0817 119.534 62.8678 119.534H69.6718C70.4579 119.534 71.0738 118.918 71.0738 118.132V101.614C71.148 100.201 70.5352 98.9086 69.5139 98.0007ZM63.8644 98.9482C64.1382 98.7092 64.3357 98.5792 64.5276 98.4832C64.7854 98.3543 65.0419 98.2052 65.224 97.9434C65.4081 97.6788 65.4938 97.3334 65.4938 96.8556V96.6376H67.0098V96.7476C67.0098 97.2583 67.0944 97.6212 67.282 97.8997C67.4678 98.1757 67.7335 98.3348 68.0062 98.4802L68.0061 98.4803L68.012 98.4832C68.2049 98.5796 68.4034 98.7104 68.6792 98.9517L68.6804 98.9528C69.3527 99.5334 69.7763 100.367 69.8716 101.25H62.7667C62.8293 100.374 63.2194 99.5642 63.8644 98.9482ZM62.7218 118.096V109.022H69.8898V118.096V118.113L69.8923 118.131C69.8982 118.172 69.8856 118.203 69.8595 118.229C69.8296 118.259 69.7851 118.278 69.7438 118.278H62.9038C62.7899 118.278 62.7218 118.21 62.7218 118.096ZM64.9538 95.4536V94.1536H67.7298V95.4536H64.9538ZM62.7218 102.434H69.8898V107.802H62.7218V102.434Z" fill="#00B657" stroke="#00B657" stroke-width="0.5"/>
<path d="M80.4579 98.0007L80.4581 98.0005L80.448 97.9924C80.0796 97.6977 79.7782 97.5077 79.5437 97.39C79.3263 97.2714 79.2843 97.2405 79.2597 97.1995C79.2333 97.1555 79.2098 97.0645 79.2098 96.7476V96.5706C79.5795 96.4141 79.8578 96.0494 79.8578 95.6316V93.9756C79.8578 93.4055 79.3859 92.9336 78.8158 92.9336H75.7198C75.1497 92.9336 74.6778 93.4055 74.6778 93.9756V95.6316C74.6778 96.0476 74.9265 96.3796 75.2538 96.5518V96.8916C75.2538 97.1902 75.2303 97.2716 75.2093 97.3061C75.1916 97.3351 75.1624 97.3588 74.96 97.46C74.7317 97.5741 74.3867 97.7658 74.0046 98.1098L74.0045 98.1098L74.0022 98.1119C73.0157 99.0226 72.4458 100.313 72.4458 101.644V118.132C72.4458 118.918 73.0617 119.534 73.8478 119.534H80.6518C81.4379 119.534 82.0538 118.918 82.0538 118.132V101.611C82.0908 100.201 81.4803 98.9095 80.4579 98.0007ZM73.7107 101.25C73.7733 100.374 74.1634 99.5643 74.8084 98.9483C75.0821 98.7092 75.2796 98.5792 75.4716 98.4832C75.7294 98.3543 75.9859 98.2052 76.168 97.9434C76.3521 97.6788 76.4378 97.3334 76.4378 96.8556V96.6376H77.9898V96.7476C77.9898 97.2583 78.0743 97.6212 78.2619 97.8997C78.4478 98.1757 78.7135 98.3348 78.9862 98.4802L78.9861 98.4803L78.992 98.4832C79.1849 98.5796 79.3834 98.7104 79.6592 98.9517L79.6604 98.9528C80.3326 99.5334 80.7563 100.367 80.8515 101.25H73.7107ZM75.8978 95.4536V94.1536H78.6738V95.4536H75.8978ZM73.6658 102.434H80.8698V107.802H73.6658V102.434ZM80.6878 118.278H73.8478C73.7339 118.278 73.6658 118.21 73.6658 118.096V109.022H80.8698V118.096C80.8698 118.196 80.7794 118.278 80.6878 118.278Z" fill="#00B657" stroke="#00B657" stroke-width="0.5"/>
<rect x="23" y="169" width="86" height="78" fill="white" stroke="black" stroke-width="2"/>
<rect x="24" y="230" width="84" height="2" fill="black"/>
<path d="M28 238.376C28.0076 240.627 31.7442 242.875 31.9031 242.969C31.9376 242.99 31.9765 243 32.0155 243C32.0548 243 32.0944 242.99 32.1288 242.969C32.2875 242.873 36.007 240.604 36 238.353C35.9976 236.736 34.8716 236 33.8203 236C32.8631 236.002 32.2878 236.578 31.9976 237.107C31.704 236.581 31.1265 236.01 30.1687 236.01C29.1223 236.013 27.9973 236.755 28 238.376ZM30.1754 236.433C31.4542 236.433 31.7762 237.679 31.7889 237.732C31.8124 237.827 31.8995 237.894 31.9991 237.894C31.9988 237.894 31.9994 237.894 31.9991 237.894C32.0996 237.894 32.1873 237.826 32.2095 237.73C32.2126 237.717 32.5302 236.426 33.8261 236.422C34.6916 236.422 35.5657 237.019 35.5675 238.354C35.5733 240.167 32.6319 242.143 32.0143 242.538C31.3936 242.147 28.438 240.187 28.4322 238.375C28.43 237.037 29.3035 236.435 30.1754 236.433Z" fill="#00B657"/>
<path d="M30.1754 236.433C31.4542 236.433 31.7762 237.679 31.7889 237.732C31.8124 237.827 31.8995 237.894 31.9991 237.894C32.0996 237.894 32.1873 237.826 32.2095 237.73C32.2126 237.717 32.5302 236.426 33.8261 236.422C34.6916 236.422 35.5657 237.019 35.5675 238.354C35.5733 240.167 32.6319 242.143 32.0143 242.538C31.3936 242.147 28.438 240.187 28.4322 238.375C28.43 237.037 29.3035 236.435 30.1754 236.433Z" fill="#00B657"/>
<path d="M80.7443 188.304C84.2353 188.304 87.088 191.152 87.088 194.636C87.088 196.711 86.067 198.475 84.5109 199.565C88.5091 201.098 91.3638 204.963 91.3337 209.475C91.325 210.036 90.8057 210.539 90.2436 210.53C89.6814 210.521 89.1777 210.003 89.1862 209.442C89.2174 204.767 85.4943 200.981 80.8107 200.951C78.0277 200.932 75.4122 202.279 73.8228 204.528C76.1363 206.482 77.6109 209.395 77.5894 212.641C77.5806 213.202 77.0614 213.705 76.4992 213.696C75.937 213.687 75.4333 213.169 75.4419 212.608C75.473 207.933 71.7499 204.147 67.0664 204.117C62.3828 204.086 58.5901 207.851 58.5586 212.526C58.5427 213.117 57.9868 213.613 57.4848 213.63C56.9341 213.614 56.4104 213.138 56.411 212.493C56.4323 209.309 57.8878 206.466 60.1445 204.546C57.5868 200.928 52.6608 199.851 48.8283 202.204C46.3269 203.74 44.8167 206.462 44.8139 209.393C44.8139 209.954 44.3023 210.465 43.7401 210.465C43.1779 210.465 42.6663 209.954 42.6663 209.393C42.6696 205.733 44.5976 202.341 47.7214 200.423C48.2789 200.081 48.8523 199.797 49.4394 199.566C47.9065 198.465 46.9118 196.7 46.9118 194.636C46.9118 191.152 49.7645 188.305 53.2555 188.305C56.7465 188.305 59.5993 191.152 59.5993 194.636C59.5993 196.69 58.5936 198.447 57.0552 199.549C58.9585 200.276 60.653 201.563 61.8955 203.325C62.3038 203.101 62.729 202.901 63.1676 202.731C61.6454 201.62 60.6566 199.858 60.6566 197.802C60.6566 194.317 63.5094 191.47 67.0003 191.47C70.4913 191.47 73.3441 194.317 73.3441 197.802C73.3441 199.86 72.328 201.621 70.7836 202.731C71.2337 202.905 71.6704 203.094 72.0888 203.325C73.3119 201.589 75.0181 200.289 76.9623 199.549C75.4165 198.458 74.4018 196.703 74.4018 194.636C74.4018 191.152 77.2546 188.305 80.7455 188.305L80.7443 188.304ZM80.7443 190.415C78.396 190.415 76.5153 192.292 76.5153 194.636C76.5153 196.979 78.3963 198.857 80.7443 198.857C83.0926 198.857 84.9733 196.98 84.9733 194.636C84.9733 192.292 83.0923 190.415 80.7443 190.415ZM53.2553 190.415C50.907 190.415 49.0263 192.292 49.0263 194.636C49.0263 196.979 50.9073 198.857 53.2553 198.857C55.6036 198.857 57.4843 196.98 57.4843 194.636C57.4843 192.292 55.6033 190.415 53.2553 190.415ZM66.9998 193.58C64.6515 193.58 62.7708 195.457 62.7708 197.801C62.7708 200.145 64.6518 202.022 66.9998 202.022C69.4664 202.059 71.2197 200.176 71.2288 197.801C71.2288 195.458 69.3478 193.58 66.9998 193.58Z" fill="#9AABBC"/>
<rect x="126" y="74" width="86" height="78" fill="white" stroke="black" stroke-width="2"/>
<rect x="127" y="135" width="84" height="2" fill="black"/>
<path d="M131 143.376C131.008 145.627 134.744 147.875 134.903 147.969C134.938 147.99 134.977 148 135.016 148C135.055 148 135.094 147.99 135.129 147.969C135.287 147.873 139.007 145.604 139 143.353C138.998 141.736 137.872 141 136.82 141C135.863 141.002 135.288 141.578 134.998 142.107C134.704 141.581 134.127 141.01 133.169 141.01C132.122 141.013 130.997 141.755 131 143.376ZM133.175 141.433C134.454 141.433 134.776 142.679 134.789 142.732C134.812 142.827 134.899 142.894 134.999 142.894C134.999 142.894 134.999 142.894 134.999 142.894C135.1 142.894 135.187 142.826 135.21 142.73C135.213 142.717 135.53 141.426 136.826 141.422C137.692 141.422 138.566 142.019 138.568 143.354C138.573 145.167 135.632 147.143 135.014 147.538C134.394 147.147 131.438 145.187 131.432 143.375C131.43 142.037 132.303 141.435 133.175 141.433Z" fill="#00B657"/>
<path d="M133.175 141.433C134.454 141.433 134.776 142.679 134.789 142.732C134.812 142.827 134.899 142.894 134.999 142.894C135.1 142.894 135.187 142.826 135.21 142.73C135.213 142.717 135.53 141.426 136.826 141.422C137.692 141.422 138.566 142.019 138.568 143.354C138.573 145.167 135.632 147.143 135.014 147.538C134.394 147.147 131.438 145.187 131.432 143.375C131.43 142.037 132.303 141.435 133.175 141.433Z" fill="#00B657"/>
<mask id="path-15-outside-1_1_207" maskUnits="userSpaceOnUse" x="146.837" y="85.3366" width="44" height="41" fill="black">
<rect fill="white" x="146.837" y="85.3366" width="44" height="41"/>
<path d="M188.968 90.1944C187.896 88.4035 186.145 87.1274 184.041 86.6011C181.709 86.0182 179.142 86.4239 176.996 87.7136C176.995 87.7139 176.995 87.7139 176.994 87.7141L169.003 92.5109L161.004 87.7121C160.998 87.7088 160.992 87.7089 160.987 87.706C158.94 86.4808 156.576 86.0586 154.328 86.5169C152.056 86.9807 150.174 88.2863 149.027 90.1941C147.217 93.2146 147.486 96.7825 149.741 99.5149C149.846 99.636 149.945 99.7568 150.038 99.8897C150.111 99.9921 150.19 100.107 150.243 100.185C150.259 100.207 150.274 100.228 150.288 100.247L154.338 107.539C154.713 108.22 155.42 108.605 156.151 108.605C156.491 108.605 156.837 108.521 157.156 108.345C157.544 108.128 157.868 107.815 158.095 107.437C158.56 106.655 158.575 105.681 158.135 104.902L156.898 102.664L161.685 105.538V112.497L160.41 110.288C159.96 109.505 159.118 109.018 158.211 109.018C157.764 109.018 157.339 109.129 156.938 109.354C155.949 109.935 155.613 111.207 156.187 112.184L160.356 119.409L160.536 119.818C160.604 119.966 160.661 120.12 160.715 120.266C161.889 123.595 164.806 125.663 168.329 125.663C172.899 125.663 176.617 121.626 176.617 116.664V105.356L181.099 102.669L179.864 104.896C179.419 105.685 179.434 106.66 179.903 107.438C180.136 107.826 180.462 108.141 180.84 108.345C181.154 108.52 181.499 108.61 181.849 108.61C182.039 108.61 182.232 108.583 182.42 108.529C182.95 108.377 183.392 108.026 183.664 107.54C185.004 105.126 187.529 100.578 187.712 100.251C187.749 100.197 187.86 100.034 187.96 99.8934C188.055 99.7595 188.15 99.6368 188.265 99.5042C190.51 96.7815 190.78 93.2142 188.968 90.1938L188.968 90.1944ZM155.632 100.548C155.406 100.412 155.117 100.446 154.928 100.628C154.739 100.812 154.696 101.099 154.824 101.329L157.118 105.469C157.36 105.897 157.351 106.41 157.095 106.84C156.973 107.045 156.801 107.21 156.59 107.328C156.151 107.57 155.597 107.413 155.356 106.975L151.294 99.6616C151.281 99.6383 151.267 99.6161 151.251 99.595L151.201 99.5239C151.145 99.4423 151.061 99.3208 150.989 99.2194C150.878 99.0594 150.753 98.9062 150.629 98.7639C148.678 96.3972 148.452 93.4175 150.025 90.7931C151.001 89.1686 152.612 88.0551 154.561 87.6575C156.529 87.2568 158.604 87.6307 160.403 88.712C160.407 88.7143 160.412 88.7142 160.416 88.7163L168.705 93.6891C168.713 93.694 168.721 93.6991 168.729 93.7037L171.447 95.334C171.708 95.4909 171.893 95.7392 171.966 96.0338C172.04 96.329 171.995 96.6357 171.838 96.8968C171.514 97.4356 170.813 97.6101 170.274 97.2877L164.827 94.0201C164.551 93.8548 164.194 93.9437 164.029 94.2196C163.863 94.4953 163.953 94.8527 164.228 95.0181L169.667 98.281C169.671 98.2832 169.673 98.287 169.676 98.2892L171.438 99.3437C171.553 99.414 171.642 99.4962 171.726 99.5998C171.525 99.5205 171.312 99.461 171.084 99.4377V99.4366C171.057 99.4329 171.033 99.4341 171.009 99.4323C171.006 99.4323 171.004 99.4307 171.001 99.4307C171 99.4307 170.998 99.4315 170.997 99.4315C170.958 99.429 170.919 99.4245 170.876 99.4245C170.458 99.4245 170.066 99.5362 169.726 99.729C169.708 99.2326 169.543 98.7699 169.262 98.4257C169.196 98.3271 169.118 98.2376 169.058 98.187C168.622 97.7516 168.045 97.5118 167.432 97.5118C166.671 97.5118 165.984 97.8776 165.56 98.472L163.059 96.9723C162.785 96.8071 162.427 96.8956 162.26 97.1709C162.095 97.4462 162.184 97.8037 162.459 97.9696L165.148 99.5818C165.142 99.6346 165.137 99.6876 165.135 99.7401C164.744 99.5146 164.294 99.3995 163.833 99.4318C163.138 99.4735 162.508 99.852 162.114 100.423L161.283 99.9248C161.007 99.7592 160.65 99.8484 160.485 100.124C160.319 100.4 160.409 100.757 160.684 100.923L161.706 101.536C161.696 101.624 161.685 101.712 161.685 101.801V104.18L155.632 100.548ZM168.328 124.499C165.268 124.499 162.832 122.772 161.81 119.871C161.742 119.689 161.674 119.506 161.595 119.335L161.474 119.061C161.423 118.943 161.394 118.877 161.364 118.827L157.193 111.598C156.942 111.171 157.092 110.614 157.518 110.363C158.16 110.004 159.036 110.233 159.402 110.869L161.763 114.962C161.894 115.19 162.164 115.303 162.417 115.234C162.672 115.165 162.849 114.935 162.849 114.672L162.849 101.801C162.849 101.674 162.869 101.547 162.91 101.418C163.054 100.952 163.453 100.621 163.909 100.593C164.243 100.568 164.56 100.687 164.797 100.924C164.849 100.976 164.896 101.037 164.932 101.088C165.06 101.275 165.13 101.502 165.13 101.726V110.143C165.13 110.465 165.391 110.725 165.712 110.725C166.033 110.725 166.294 110.464 166.294 110.143V99.8136C166.294 99.7025 166.312 99.5855 166.348 99.4655C166.497 98.9933 166.932 98.6761 167.432 98.6761C167.819 98.6761 168.082 98.858 168.235 99.0104C168.244 99.0194 168.315 99.1055 168.324 99.1141C168.484 99.3122 168.569 99.5543 168.569 99.8136V110.143C168.569 110.465 168.83 110.7 169.151 110.7C169.473 110.7 169.733 110.414 169.733 110.093V101.726C169.733 101.631 169.741 101.558 169.768 101.464C169.885 100.956 170.35 100.589 170.876 100.589L170.965 100.593C171.233 100.613 171.487 100.73 171.681 100.924C171.707 100.951 171.735 100.981 171.783 101.047C171.832 101.107 171.873 101.175 171.913 101.263C171.979 101.403 172.014 101.563 172.014 101.726V110.143C172.014 110.465 172.274 110.725 172.596 110.725C172.917 110.725 173.178 110.464 173.178 110.143L173.178 103.794C173.178 103.593 173.229 103.398 173.326 103.228C173.522 102.884 173.886 102.662 174.315 102.651C174.622 102.651 174.909 102.77 175.125 102.985C175.139 103 175.151 103.016 175.179 103.05C175.358 103.255 175.452 103.512 175.452 103.795V116.665C175.453 120.985 172.257 124.5 168.328 124.5L168.328 124.499ZM187.375 98.7544C187.244 98.9055 187.127 99.0567 187.011 99.2202C186.883 99.4 186.735 99.6188 186.735 99.6188L186.742 99.623C186.578 99.8921 185.923 101.072 182.647 106.974C182.527 107.189 182.332 107.344 182.099 107.411C181.866 107.478 181.621 107.449 181.401 107.326C181.199 107.217 181.026 107.049 180.9 106.84C180.647 106.419 180.638 105.894 180.88 105.466L183.172 101.336C183.3 101.106 183.257 100.818 183.068 100.635C182.879 100.452 182.59 100.419 182.364 100.554L176.616 104V103.794C176.616 103.234 176.417 102.697 176.072 102.303C176.034 102.255 175.995 102.209 175.948 102.162C175.856 102.07 175.754 101.991 175.651 101.918L177.308 100.925C177.585 100.762 177.677 100.406 177.514 100.129C177.352 99.8519 176.997 99.7593 176.717 99.9224L174.077 101.503C173.758 101.536 173.452 101.635 173.178 101.792V101.726C173.178 101.481 173.126 101.244 173.052 101.018C173.106 100.848 173.146 100.683 173.156 100.53C173.181 100.272 173.159 100.019 173.092 99.7666C173.068 99.672 173.029 99.5868 172.995 99.4984L175.537 97.9702C175.812 97.8049 175.902 97.4474 175.736 97.1718C175.571 96.8965 175.214 96.807 174.938 96.9723L172.312 98.5509C172.226 98.4806 172.141 98.4099 172.041 98.3487L171.989 98.3174C172.327 98.1281 172.622 97.8515 172.836 97.4959C173.152 96.9679 173.245 96.3488 173.095 95.7523C173.072 95.6584 173.034 95.5713 172.999 95.4824L173.767 95.0237C174.043 94.8585 174.133 94.5015 173.968 94.2256C173.803 93.9496 173.445 93.8596 173.17 94.0246L172.315 94.5357C172.229 94.4652 172.143 94.3944 172.045 94.336L170.134 93.1894L177.593 88.7126C177.593 88.7125 177.593 88.7122 177.594 88.712C179.479 87.5798 181.727 87.2223 183.759 87.7303C185.562 88.1809 187.058 89.2684 187.971 90.7925C189.544 93.4172 189.318 96.3973 187.375 98.7541L187.375 98.7544Z"/>
</mask>
<path d="M188.968 90.1944C187.896 88.4035 186.145 87.1274 184.041 86.6011C181.709 86.0182 179.142 86.4239 176.996 87.7136C176.995 87.7139 176.995 87.7139 176.994 87.7141L169.003 92.5109L161.004 87.7121C160.998 87.7088 160.992 87.7089 160.987 87.706C158.94 86.4808 156.576 86.0586 154.328 86.5169C152.056 86.9807 150.174 88.2863 149.027 90.1941C147.217 93.2146 147.486 96.7825 149.741 99.5149C149.846 99.636 149.945 99.7568 150.038 99.8897C150.111 99.9921 150.19 100.107 150.243 100.185C150.259 100.207 150.274 100.228 150.288 100.247L154.338 107.539C154.713 108.22 155.42 108.605 156.151 108.605C156.491 108.605 156.837 108.521 157.156 108.345C157.544 108.128 157.868 107.815 158.095 107.437C158.56 106.655 158.575 105.681 158.135 104.902L156.898 102.664L161.685 105.538V112.497L160.41 110.288C159.96 109.505 159.118 109.018 158.211 109.018C157.764 109.018 157.339 109.129 156.938 109.354C155.949 109.935 155.613 111.207 156.187 112.184L160.356 119.409L160.536 119.818C160.604 119.966 160.661 120.12 160.715 120.266C161.889 123.595 164.806 125.663 168.329 125.663C172.899 125.663 176.617 121.626 176.617 116.664V105.356L181.099 102.669L179.864 104.896C179.419 105.685 179.434 106.66 179.903 107.438C180.136 107.826 180.462 108.141 180.84 108.345C181.154 108.52 181.499 108.61 181.849 108.61C182.039 108.61 182.232 108.583 182.42 108.529C182.95 108.377 183.392 108.026 183.664 107.54C185.004 105.126 187.529 100.578 187.712 100.251C187.749 100.197 187.86 100.034 187.96 99.8934C188.055 99.7595 188.15 99.6368 188.265 99.5042C190.51 96.7815 190.78 93.2142 188.968 90.1938L188.968 90.1944ZM155.632 100.548C155.406 100.412 155.117 100.446 154.928 100.628C154.739 100.812 154.696 101.099 154.824 101.329L157.118 105.469C157.36 105.897 157.351 106.41 157.095 106.84C156.973 107.045 156.801 107.21 156.59 107.328C156.151 107.57 155.597 107.413 155.356 106.975L151.294 99.6616C151.281 99.6383 151.267 99.6161 151.251 99.595L151.201 99.5239C151.145 99.4423 151.061 99.3208 150.989 99.2194C150.878 99.0594 150.753 98.9062 150.629 98.7639C148.678 96.3972 148.452 93.4175 150.025 90.7931C151.001 89.1686 152.612 88.0551 154.561 87.6575C156.529 87.2568 158.604 87.6307 160.403 88.712C160.407 88.7143 160.412 88.7142 160.416 88.7163L168.705 93.6891C168.713 93.694 168.721 93.6991 168.729 93.7037L171.447 95.334C171.708 95.4909 171.893 95.7392 171.966 96.0338C172.04 96.329 171.995 96.6357 171.838 96.8968C171.514 97.4356 170.813 97.6101 170.274 97.2877L164.827 94.0201C164.551 93.8548 164.194 93.9437 164.029 94.2196C163.863 94.4953 163.953 94.8527 164.228 95.0181L169.667 98.281C169.671 98.2832 169.673 98.287 169.676 98.2892L171.438 99.3437C171.553 99.414 171.642 99.4962 171.726 99.5998C171.525 99.5205 171.312 99.461 171.084 99.4377V99.4366C171.057 99.4329 171.033 99.4341 171.009 99.4323C171.006 99.4323 171.004 99.4307 171.001 99.4307C171 99.4307 170.998 99.4315 170.997 99.4315C170.958 99.429 170.919 99.4245 170.876 99.4245C170.458 99.4245 170.066 99.5362 169.726 99.729C169.708 99.2326 169.543 98.7699 169.262 98.4257C169.196 98.3271 169.118 98.2376 169.058 98.187C168.622 97.7516 168.045 97.5118 167.432 97.5118C166.671 97.5118 165.984 97.8776 165.56 98.472L163.059 96.9723C162.785 96.8071 162.427 96.8956 162.26 97.1709C162.095 97.4462 162.184 97.8037 162.459 97.9696L165.148 99.5818C165.142 99.6346 165.137 99.6876 165.135 99.7401C164.744 99.5146 164.294 99.3995 163.833 99.4318C163.138 99.4735 162.508 99.852 162.114 100.423L161.283 99.9248C161.007 99.7592 160.65 99.8484 160.485 100.124C160.319 100.4 160.409 100.757 160.684 100.923L161.706 101.536C161.696 101.624 161.685 101.712 161.685 101.801V104.18L155.632 100.548ZM168.328 124.499C165.268 124.499 162.832 122.772 161.81 119.871C161.742 119.689 161.674 119.506 161.595 119.335L161.474 119.061C161.423 118.943 161.394 118.877 161.364 118.827L157.193 111.598C156.942 111.171 157.092 110.614 157.518 110.363C158.16 110.004 159.036 110.233 159.402 110.869L161.763 114.962C161.894 115.19 162.164 115.303 162.417 115.234C162.672 115.165 162.849 114.935 162.849 114.672L162.849 101.801C162.849 101.674 162.869 101.547 162.91 101.418C163.054 100.952 163.453 100.621 163.909 100.593C164.243 100.568 164.56 100.687 164.797 100.924C164.849 100.976 164.896 101.037 164.932 101.088C165.06 101.275 165.13 101.502 165.13 101.726V110.143C165.13 110.465 165.391 110.725 165.712 110.725C166.033 110.725 166.294 110.464 166.294 110.143V99.8136C166.294 99.7025 166.312 99.5855 166.348 99.4655C166.497 98.9933 166.932 98.6761 167.432 98.6761C167.819 98.6761 168.082 98.858 168.235 99.0104C168.244 99.0194 168.315 99.1055 168.324 99.1141C168.484 99.3122 168.569 99.5543 168.569 99.8136V110.143C168.569 110.465 168.83 110.7 169.151 110.7C169.473 110.7 169.733 110.414 169.733 110.093V101.726C169.733 101.631 169.741 101.558 169.768 101.464C169.885 100.956 170.35 100.589 170.876 100.589L170.965 100.593C171.233 100.613 171.487 100.73 171.681 100.924C171.707 100.951 171.735 100.981 171.783 101.047C171.832 101.107 171.873 101.175 171.913 101.263C171.979 101.403 172.014 101.563 172.014 101.726V110.143C172.014 110.465 172.274 110.725 172.596 110.725C172.917 110.725 173.178 110.464 173.178 110.143L173.178 103.794C173.178 103.593 173.229 103.398 173.326 103.228C173.522 102.884 173.886 102.662 174.315 102.651C174.622 102.651 174.909 102.77 175.125 102.985C175.139 103 175.151 103.016 175.179 103.05C175.358 103.255 175.452 103.512 175.452 103.795V116.665C175.453 120.985 172.257 124.5 168.328 124.5L168.328 124.499ZM187.375 98.7544C187.244 98.9055 187.127 99.0567 187.011 99.2202C186.883 99.4 186.735 99.6188 186.735 99.6188L186.742 99.623C186.578 99.8921 185.923 101.072 182.647 106.974C182.527 107.189 182.332 107.344 182.099 107.411C181.866 107.478 181.621 107.449 181.401 107.326C181.199 107.217 181.026 107.049 180.9 106.84C180.647 106.419 180.638 105.894 180.88 105.466L183.172 101.336C183.3 101.106 183.257 100.818 183.068 100.635C182.879 100.452 182.59 100.419 182.364 100.554L176.616 104V103.794C176.616 103.234 176.417 102.697 176.072 102.303C176.034 102.255 175.995 102.209 175.948 102.162C175.856 102.07 175.754 101.991 175.651 101.918L177.308 100.925C177.585 100.762 177.677 100.406 177.514 100.129C177.352 99.8519 176.997 99.7593 176.717 99.9224L174.077 101.503C173.758 101.536 173.452 101.635 173.178 101.792V101.726C173.178 101.481 173.126 101.244 173.052 101.018C173.106 100.848 173.146 100.683 173.156 100.53C173.181 100.272 173.159 100.019 173.092 99.7666C173.068 99.672 173.029 99.5868 172.995 99.4984L175.537 97.9702C175.812 97.8049 175.902 97.4474 175.736 97.1718C175.571 96.8965 175.214 96.807 174.938 96.9723L172.312 98.5509C172.226 98.4806 172.141 98.4099 172.041 98.3487L171.989 98.3174C172.327 98.1281 172.622 97.8515 172.836 97.4959C173.152 96.9679 173.245 96.3488 173.095 95.7523C173.072 95.6584 173.034 95.5713 172.999 95.4824L173.767 95.0237C174.043 94.8585 174.133 94.5015 173.968 94.2256C173.803 93.9496 173.445 93.8596 173.17 94.0246L172.315 94.5357C172.229 94.4652 172.143 94.3944 172.045 94.336L170.134 93.1894L177.593 88.7126C177.593 88.7125 177.593 88.7122 177.594 88.712C179.479 87.5798 181.727 87.2223 183.759 87.7303C185.562 88.1809 187.058 89.2684 187.971 90.7925C189.544 93.4172 189.318 96.3973 187.375 98.7541L187.375 98.7544Z" fill="#9AABBC"/>
<path d="M188.968 90.1944C187.896 88.4035 186.145 87.1274 184.041 86.6011C181.709 86.0182 179.142 86.4239 176.996 87.7136C176.995 87.7139 176.995 87.7139 176.994 87.7141L169.003 92.5109L161.004 87.7121C160.998 87.7088 160.992 87.7089 160.987 87.706C158.94 86.4808 156.576 86.0586 154.328 86.5169C152.056 86.9807 150.174 88.2863 149.027 90.1941C147.217 93.2146 147.486 96.7825 149.741 99.5149C149.846 99.636 149.945 99.7568 150.038 99.8897C150.111 99.9921 150.19 100.107 150.243 100.185C150.259 100.207 150.274 100.228 150.288 100.247L154.338 107.539C154.713 108.22 155.42 108.605 156.151 108.605C156.491 108.605 156.837 108.521 157.156 108.345C157.544 108.128 157.868 107.815 158.095 107.437C158.56 106.655 158.575 105.681 158.135 104.902L156.898 102.664L161.685 105.538V112.497L160.41 110.288C159.96 109.505 159.118 109.018 158.211 109.018C157.764 109.018 157.339 109.129 156.938 109.354C155.949 109.935 155.613 111.207 156.187 112.184L160.356 119.409L160.536 119.818C160.604 119.966 160.661 120.12 160.715 120.266C161.889 123.595 164.806 125.663 168.329 125.663C172.899 125.663 176.617 121.626 176.617 116.664V105.356L181.099 102.669L179.864 104.896C179.419 105.685 179.434 106.66 179.903 107.438C180.136 107.826 180.462 108.141 180.84 108.345C181.154 108.52 181.499 108.61 181.849 108.61C182.039 108.61 182.232 108.583 182.42 108.529C182.95 108.377 183.392 108.026 183.664 107.54C185.004 105.126 187.529 100.578 187.712 100.251C187.749 100.197 187.86 100.034 187.96 99.8934C188.055 99.7595 188.15 99.6368 188.265 99.5042C190.51 96.7815 190.78 93.2142 188.968 90.1938L188.968 90.1944ZM155.632 100.548C155.406 100.412 155.117 100.446 154.928 100.628C154.739 100.812 154.696 101.099 154.824 101.329L157.118 105.469C157.36 105.897 157.351 106.41 157.095 106.84C156.973 107.045 156.801 107.21 156.59 107.328C156.151 107.57 155.597 107.413 155.356 106.975L151.294 99.6616C151.281 99.6383 151.267 99.6161 151.251 99.595L151.201 99.5239C151.145 99.4423 151.061 99.3208 150.989 99.2194C150.878 99.0594 150.753 98.9062 150.629 98.7639C148.678 96.3972 148.452 93.4175 150.025 90.7931C151.001 89.1686 152.612 88.0551 154.561 87.6575C156.529 87.2568 158.604 87.6307 160.403 88.712C160.407 88.7143 160.412 88.7142 160.416 88.7163L168.705 93.6891C168.713 93.694 168.721 93.6991 168.729 93.7037L171.447 95.334C171.708 95.4909 171.893 95.7392 171.966 96.0338C172.04 96.329 171.995 96.6357 171.838 96.8968C171.514 97.4356 170.813 97.6101 170.274 97.2877L164.827 94.0201C164.551 93.8548 164.194 93.9437 164.029 94.2196C163.863 94.4953 163.953 94.8527 164.228 95.0181L169.667 98.281C169.671 98.2832 169.673 98.287 169.676 98.2892L171.438 99.3437C171.553 99.414 171.642 99.4962 171.726 99.5998C171.525 99.5205 171.312 99.461 171.084 99.4377V99.4366C171.057 99.4329 171.033 99.4341 171.009 99.4323C171.006 99.4323 171.004 99.4307 171.001 99.4307C171 99.4307 170.998 99.4315 170.997 99.4315C170.958 99.429 170.919 99.4245 170.876 99.4245C170.458 99.4245 170.066 99.5362 169.726 99.729C169.708 99.2326 169.543 98.7699 169.262 98.4257C169.196 98.3271 169.118 98.2376 169.058 98.187C168.622 97.7516 168.045 97.5118 167.432 97.5118C166.671 97.5118 165.984 97.8776 165.56 98.472L163.059 96.9723C162.785 96.8071 162.427 96.8956 162.26 97.1709C162.095 97.4462 162.184 97.8037 162.459 97.9696L165.148 99.5818C165.142 99.6346 165.137 99.6876 165.135 99.7401C164.744 99.5146 164.294 99.3995 163.833 99.4318C163.138 99.4735 162.508 99.852 162.114 100.423L161.283 99.9248C161.007 99.7592 160.65 99.8484 160.485 100.124C160.319 100.4 160.409 100.757 160.684 100.923L161.706 101.536C161.696 101.624 161.685 101.712 161.685 101.801V104.18L155.632 100.548ZM168.328 124.499C165.268 124.499 162.832 122.772 161.81 119.871C161.742 119.689 161.674 119.506 161.595 119.335L161.474 119.061C161.423 118.943 161.394 118.877 161.364 118.827L157.193 111.598C156.942 111.171 157.092 110.614 157.518 110.363C158.16 110.004 159.036 110.233 159.402 110.869L161.763 114.962C161.894 115.19 162.164 115.303 162.417 115.234C162.672 115.165 162.849 114.935 162.849 114.672L162.849 101.801C162.849 101.674 162.869 101.547 162.91 101.418C163.054 100.952 163.453 100.621 163.909 100.593C164.243 100.568 164.56 100.687 164.797 100.924C164.849 100.976 164.896 101.037 164.932 101.088C165.06 101.275 165.13 101.502 165.13 101.726V110.143C165.13 110.465 165.391 110.725 165.712 110.725C166.033 110.725 166.294 110.464 166.294 110.143V99.8136C166.294 99.7025 166.312 99.5855 166.348 99.4655C166.497 98.9933 166.932 98.6761 167.432 98.6761C167.819 98.6761 168.082 98.858 168.235 99.0104C168.244 99.0194 168.315 99.1055 168.324 99.1141C168.484 99.3122 168.569 99.5543 168.569 99.8136V110.143C168.569 110.465 168.83 110.7 169.151 110.7C169.473 110.7 169.733 110.414 169.733 110.093V101.726C169.733 101.631 169.741 101.558 169.768 101.464C169.885 100.956 170.35 100.589 170.876 100.589L170.965 100.593C171.233 100.613 171.487 100.73 171.681 100.924C171.707 100.951 171.735 100.981 171.783 101.047C171.832 101.107 171.873 101.175 171.913 101.263C171.979 101.403 172.014 101.563 172.014 101.726V110.143C172.014 110.465 172.274 110.725 172.596 110.725C172.917 110.725 173.178 110.464 173.178 110.143L173.178 103.794C173.178 103.593 173.229 103.398 173.326 103.228C173.522 102.884 173.886 102.662 174.315 102.651C174.622 102.651 174.909 102.77 175.125 102.985C175.139 103 175.151 103.016 175.179 103.05C175.358 103.255 175.452 103.512 175.452 103.795V116.665C175.453 120.985 172.257 124.5 168.328 124.5L168.328 124.499ZM187.375 98.7544C187.244 98.9055 187.127 99.0567 187.011 99.2202C186.883 99.4 186.735 99.6188 186.735 99.6188L186.742 99.623C186.578 99.8921 185.923 101.072 182.647 106.974C182.527 107.189 182.332 107.344 182.099 107.411C181.866 107.478 181.621 107.449 181.401 107.326C181.199 107.217 181.026 107.049 180.9 106.84C180.647 106.419 180.638 105.894 180.88 105.466L183.172 101.336C183.3 101.106 183.257 100.818 183.068 100.635C182.879 100.452 182.59 100.419 182.364 100.554L176.616 104V103.794C176.616 103.234 176.417 102.697 176.072 102.303C176.034 102.255 175.995 102.209 175.948 102.162C175.856 102.07 175.754 101.991 175.651 101.918L177.308 100.925C177.585 100.762 177.677 100.406 177.514 100.129C177.352 99.8519 176.997 99.7593 176.717 99.9224L174.077 101.503C173.758 101.536 173.452 101.635 173.178 101.792V101.726C173.178 101.481 173.126 101.244 173.052 101.018C173.106 100.848 173.146 100.683 173.156 100.53C173.181 100.272 173.159 100.019 173.092 99.7666C173.068 99.672 173.029 99.5868 172.995 99.4984L175.537 97.9702C175.812 97.8049 175.902 97.4474 175.736 97.1718C175.571 96.8965 175.214 96.807 174.938 96.9723L172.312 98.5509C172.226 98.4806 172.141 98.4099 172.041 98.3487L171.989 98.3174C172.327 98.1281 172.622 97.8515 172.836 97.4959C173.152 96.9679 173.245 96.3488 173.095 95.7523C173.072 95.6584 173.034 95.5713 172.999 95.4824L173.767 95.0237C174.043 94.8585 174.133 94.5015 173.968 94.2256C173.803 93.9496 173.445 93.8596 173.17 94.0246L172.315 94.5357C172.229 94.4652 172.143 94.3944 172.045 94.336L170.134 93.1894L177.593 88.7126C177.593 88.7125 177.593 88.7122 177.594 88.712C179.479 87.5798 181.727 87.2223 183.759 87.7303C185.562 88.1809 187.058 89.2684 187.971 90.7925C189.544 93.4172 189.318 96.3973 187.375 98.7541L187.375 98.7544Z" stroke="#9AABBC" stroke-width="0.6" mask="url(#path-15-outside-1_1_207)"/>
<rect x="126" y="169" width="86" height="78" fill="white" stroke="black" stroke-width="2"/>
<rect x="127" y="230" width="84" height="2" fill="black"/>
<path d="M131 238.376C131.008 240.627 134.744 242.875 134.903 242.969C134.938 242.99 134.977 243 135.016 243C135.055 243 135.094 242.99 135.129 242.969C135.287 242.873 139.007 240.604 139 238.353C138.998 236.736 137.872 236 136.82 236C135.863 236.002 135.288 236.578 134.998 237.107C134.704 236.581 134.127 236.01 133.169 236.01C132.122 236.013 130.997 236.755 131 238.376ZM133.175 236.433C134.454 236.433 134.776 237.679 134.789 237.732C134.812 237.827 134.899 237.894 134.999 237.894C134.999 237.894 134.999 237.894 134.999 237.894C135.1 237.894 135.187 237.826 135.21 237.73C135.213 237.717 135.53 236.426 136.826 236.422C137.692 236.422 138.566 237.019 138.568 238.354C138.573 240.167 135.632 242.143 135.014 242.538C134.394 242.147 131.438 240.187 131.432 238.375C131.43 237.037 132.303 236.435 133.175 236.433Z" fill="#00B657"/>
<path d="M133.175 236.433C134.454 236.433 134.776 237.679 134.789 237.732C134.812 237.827 134.899 237.894 134.999 237.894C135.1 237.894 135.187 237.826 135.21 237.73C135.213 237.717 135.53 236.426 136.826 236.422C137.692 236.422 138.566 237.019 138.568 238.354C138.573 240.167 135.632 242.143 135.014 242.538C134.394 242.147 131.438 240.187 131.432 238.375C131.43 237.037 132.303 236.435 133.175 236.433Z" fill="#00B657"/>
<path d="M186.541 212.596C186.145 212.2 185.597 211.955 184.992 211.955C184.39 211.955 183.842 212.2 183.446 212.596C183.031 213.011 182.807 213.562 182.807 214.142C182.807 214.746 183.051 215.295 183.445 215.69C183.839 216.083 184.387 216.328 184.992 216.328C185.594 216.328 186.142 216.083 186.538 215.688C186.934 215.292 187.179 214.746 187.179 214.142C187.179 213.565 186.956 213.01 186.543 212.596L186.541 212.596ZM156.416 204.739C156.99 204.739 157.457 205.204 157.457 205.779C157.457 206.353 156.992 206.82 156.416 206.82H154.842C154.268 206.82 153.801 206.355 153.801 205.779C153.801 205.205 154.266 204.739 154.842 204.739H156.416ZM176.164 185.674V188.217H177.052V185.674H176.164ZM186.139 183.594C186.997 183.594 187.779 183.945 188.343 184.51C188.907 185.08 189.259 185.858 189.259 186.714V204.739H192.418C192.992 204.739 193.459 205.204 193.459 205.779V213.782C193.459 214.356 192.994 214.823 192.418 214.823H189.206C189.061 215.727 188.631 216.539 188.01 217.16C187.239 217.93 186.17 218.409 184.994 218.409C183.819 218.409 182.755 217.93 181.983 217.16C181.361 216.536 180.929 215.726 180.784 214.823H157.404C157.259 215.727 156.828 216.539 156.207 217.16C155.436 217.93 154.368 218.409 153.191 218.409C152.015 218.409 150.947 217.93 150.176 217.16C149.557 216.536 149.126 215.726 148.981 214.823H145.583C145.009 214.823 144.543 214.358 144.543 213.782V204.407C144.543 203.55 144.895 202.767 145.461 202.201C145.89 201.767 146.447 201.461 147.07 201.34L151.948 193.826C152.124 193.5 152.467 193.277 152.865 193.277H160.799C161.374 193.277 161.84 193.742 161.84 194.318V204.739H163.96V186.714C163.96 185.892 164.285 185.14 164.81 184.582L164.876 184.51C165.439 183.947 166.22 183.594 167.08 183.594H186.142L186.139 183.594ZM179.132 185.674V189.257C179.132 189.831 178.667 190.298 178.091 190.298H175.124C174.55 190.298 174.084 189.833 174.084 189.257V185.674H167.077C166.794 185.674 166.531 185.792 166.344 185.98L166.305 186.017C166.14 186.201 166.038 186.446 166.038 186.713V204.737H187.178V186.713C187.178 186.426 187.061 186.165 186.874 185.976C186.684 185.791 186.423 185.672 186.139 185.672H179.132L179.132 185.674ZM153.19 211.957C152.588 211.957 152.041 212.202 151.644 212.597L151.598 212.641C151.211 213.052 151.005 213.586 151.005 214.143C151.005 214.747 151.25 215.296 151.643 215.69C152.039 216.083 152.588 216.328 153.19 216.328C153.792 216.328 154.34 216.083 154.736 215.689C155.132 215.292 155.377 214.746 155.377 214.143C155.377 213.567 155.156 213.012 154.741 212.597C154.345 212.2 153.797 211.956 153.192 211.956L153.19 211.957ZM150.175 211.127C150.945 210.357 152.014 209.878 153.19 209.878C154.362 209.878 155.426 210.355 156.2 211.126L156.204 211.131C156.655 211.581 157.006 212.132 157.22 212.744H159.76V203.361H147.668C147.39 203.361 147.127 203.472 146.93 203.669C146.738 203.856 146.623 204.118 146.623 204.407V212.744H149.162C149.367 212.16 149.694 211.633 150.114 211.194L150.175 211.127L150.175 211.127ZM189.021 212.744H191.376V206.82H161.837V212.744H180.962C181.175 212.129 181.525 211.578 181.976 211.129C182.748 210.357 183.815 209.879 184.991 209.879C186.163 209.879 187.227 210.357 188 211.127L188.005 211.132C188.456 211.583 188.807 212.134 189.021 212.745L189.021 212.744ZM149.579 201.282H159.76V195.358H153.426L149.579 201.282Z" fill="#00B657"/>
<rect x="229" y="74" width="86" height="78" fill="white" stroke="black" stroke-width="2"/>
<rect x="230" y="135" width="84" height="2" fill="black"/>
<path d="M234 143.376C234.008 145.627 237.744 147.875 237.903 147.969C237.938 147.99 237.977 148 238.016 148C238.055 148 238.094 147.99 238.129 147.969C238.287 147.873 242.007 145.604 242 143.353C241.998 141.736 240.872 141 239.82 141C238.863 141.002 238.288 141.578 237.998 142.107C237.704 141.581 237.127 141.01 236.169 141.01C235.122 141.013 233.997 141.755 234 143.376ZM236.175 141.433C237.454 141.433 237.776 142.679 237.789 142.732C237.812 142.827 237.899 142.894 237.999 142.894C237.999 142.894 237.999 142.894 237.999 142.894C238.1 142.894 238.187 142.826 238.21 142.73C238.213 142.717 238.53 141.426 239.826 141.422C240.692 141.422 241.566 142.019 241.568 143.354C241.573 145.167 238.632 147.143 238.014 147.538C237.394 147.147 234.438 145.187 234.432 143.375C234.43 142.037 235.303 141.435 236.175 141.433Z" fill="#00B657"/>
<path d="M236.175 141.433C237.454 141.433 237.776 142.679 237.789 142.732C237.812 142.827 237.899 142.894 237.999 142.894C238.1 142.894 238.187 142.826 238.21 142.73C238.213 142.717 238.53 141.426 239.826 141.422C240.692 141.422 241.566 142.019 241.568 143.354C241.573 145.167 238.632 147.143 238.014 147.538C237.394 147.147 234.438 145.187 234.432 143.375C234.43 142.037 235.303 141.435 236.175 141.433Z" fill="#00B657"/>
<path d="M255.832 88.106H288.168C288.934 88.106 289.631 88.4205 290.136 88.9244C290.644 89.4332 290.958 90.1304 290.958 90.896V121.103C290.958 121.868 290.644 122.565 290.14 123.071C289.631 123.578 288.934 123.893 288.168 123.893H255.832C255.064 123.893 254.365 123.578 253.86 123.074C253.355 122.569 253.04 121.871 253.04 121.103V90.896C253.04 90.128 253.355 89.4296 253.86 88.9244C254.364 88.4203 255.064 88.106 255.832 88.106ZM277.977 93.6933C279.587 93.6933 281.045 94.3474 282.102 95.4034C283.162 96.4594 283.816 97.9198 283.816 99.5314C283.816 101.143 283.162 102.605 282.106 103.661L282.057 103.705C281.003 104.735 279.563 105.371 277.977 105.371C276.365 105.371 274.905 104.717 273.849 103.661C272.793 102.605 272.139 101.143 272.139 99.5314C272.139 97.9198 272.793 96.4594 273.849 95.4034C274.905 94.3474 276.365 93.6933 277.977 93.6933ZM280.976 96.5337C280.21 95.7669 279.149 95.2929 277.977 95.2929C276.807 95.2929 275.746 95.7682 274.979 96.535C274.212 97.3018 273.737 98.3614 273.737 99.5327C273.737 100.703 274.212 101.764 274.979 102.53C275.746 103.297 276.805 103.772 277.977 103.772C279.129 103.772 280.174 103.314 280.937 102.571L280.974 102.532C281.741 101.765 282.216 100.704 282.216 99.534C282.216 98.3639 281.741 97.3031 280.976 96.5363L280.976 96.5337ZM289.359 113.913C288.714 114.251 288.05 114.516 287.364 114.697C286.208 115.003 284.998 115.065 283.721 114.822C280.997 114.301 278.049 112.386 274.979 110.39C271.654 108.23 268.176 105.97 264.909 105.477C263.127 105.208 261.367 105.463 259.626 106.086C257.952 106.683 256.291 107.619 254.64 108.758V121.104C254.64 121.43 254.775 121.728 254.991 121.944C255.207 122.16 255.504 122.294 255.831 122.294H288.167C288.495 122.294 288.794 122.16 289.01 121.945C289.225 121.729 289.359 121.431 289.359 121.102V113.912L289.359 113.913ZM254.642 106.839C256.107 105.896 257.588 105.116 259.091 104.58C261.069 103.873 263.084 103.586 265.148 103.897C268.75 104.441 272.38 106.799 275.85 109.054C278.783 110.959 281.599 112.789 284.023 113.254C285.054 113.45 286.03 113.4 286.961 113.154C287.785 112.937 288.583 112.564 289.361 112.072V90.8962C289.361 90.5686 289.226 90.2698 289.012 90.0538C288.796 89.8389 288.498 89.7046 288.169 89.7046H255.832C255.506 89.7046 255.207 89.8389 254.993 90.055C254.776 90.271 254.642 90.5685 254.642 90.8949L254.642 106.839Z" fill="#9AABBC" stroke="#9AABBC" stroke-width="0.3"/>
<rect x="229" y="169" width="86" height="78" fill="white" stroke="black" stroke-width="2"/>
<rect x="230" y="230" width="84" height="2" fill="black"/>
<path d="M234 238.376C234.008 240.627 237.744 242.875 237.903 242.969C237.938 242.99 237.977 243 238.016 243C238.055 243 238.094 242.99 238.129 242.969C238.287 242.873 242.007 240.604 242 238.353C241.998 236.736 240.872 236 239.82 236C238.863 236.002 238.288 236.578 237.998 237.107C237.704 236.581 237.127 236.01 236.169 236.01C235.122 236.013 233.997 236.755 234 238.376ZM236.175 236.433C237.454 236.433 237.776 237.679 237.789 237.732C237.812 237.827 237.899 237.894 237.999 237.894C237.999 237.894 237.999 237.894 237.999 237.894C238.1 237.894 238.187 237.826 238.21 237.73C238.213 237.717 238.53 236.426 239.826 236.422C240.692 236.422 241.566 237.019 241.568 238.354C241.573 240.167 238.632 242.143 238.014 242.538C237.394 242.147 234.438 240.187 234.432 238.375C234.43 237.037 235.303 236.435 236.175 236.433Z" fill="#00B657"/>
<path d="M236.175 236.433C237.454 236.433 237.776 237.679 237.789 237.732C237.812 237.827 237.899 237.894 237.999 237.894C238.1 237.894 238.187 237.826 238.21 237.73C238.213 237.717 238.53 236.426 239.826 236.422C240.692 236.422 241.566 237.019 241.568 238.354C241.573 240.167 238.632 242.143 238.014 242.538C237.394 242.147 234.438 240.187 234.432 238.375C234.43 237.037 235.303 236.435 236.175 236.433Z" fill="#00B657"/>
<path d="M287.499 202.563C287.921 201.099 288.144 199.58 288.144 198.037C288.144 193.238 286.061 188.916 282.744 185.934C282.676 185.872 282.607 185.816 282.545 185.761C282.409 185.643 282.266 185.519 282.124 185.401C282.006 185.302 281.882 185.209 281.764 185.116C281.671 185.048 281.584 184.973 281.491 184.905C281.343 184.793 281.194 184.688 281.045 184.589C280.977 184.545 280.915 184.502 280.846 184.452C280.673 184.341 280.499 184.229 280.326 184.118C280.289 184.093 280.251 184.074 280.214 184.049C279.359 183.535 278.466 183.101 277.529 182.754C277.498 182.741 277.461 182.729 277.43 182.716C277.244 182.648 277.052 182.586 276.86 182.524C276.773 182.5 276.693 182.469 276.606 182.444C276.438 182.394 276.264 182.345 276.097 182.301C275.986 182.27 275.874 182.239 275.762 182.214C275.607 182.177 275.452 182.14 275.297 182.109C275.161 182.078 275.031 182.053 274.894 182.028C274.752 182.004 274.609 181.973 274.466 181.954C274.311 181.929 274.15 181.911 273.995 181.886C273.865 181.867 273.741 181.849 273.611 181.836C273.425 181.818 273.232 181.799 273.046 181.786C272.941 181.78 272.842 181.768 272.736 181.762C272.445 181.743 272.147 181.737 271.85 181.737C271.552 181.737 271.255 181.743 270.963 181.762C270.858 181.768 270.759 181.78 270.653 181.786C270.467 181.799 270.275 181.811 270.089 181.836C269.959 181.848 269.835 181.867 269.704 181.886C269.549 181.904 269.388 181.929 269.233 181.954C269.09 181.979 268.948 182.004 268.805 182.028C268.669 182.053 268.539 182.078 268.402 182.109C268.247 182.14 268.086 182.177 267.931 182.214C267.819 182.239 267.708 182.27 267.596 182.301C267.423 182.345 267.255 182.394 267.082 182.45C267.001 182.475 266.914 182.5 266.833 182.53C266.641 182.592 266.449 182.654 266.257 182.723C266.226 182.735 266.195 182.747 266.164 182.76C265.228 183.107 264.322 183.547 263.461 184.062C263.43 184.08 263.392 184.099 263.361 184.117C263.182 184.229 263.008 184.341 262.834 184.458C262.772 184.502 262.71 184.545 262.648 184.582C262.493 184.688 262.345 184.793 262.196 184.905C262.109 184.967 262.022 185.035 261.935 185.103C261.811 185.202 261.687 185.295 261.563 185.394C261.427 185.506 261.297 185.618 261.167 185.736C261.092 185.797 261.018 185.859 260.943 185.928C257.633 188.91 255.549 193.231 255.549 198.03C255.549 201.781 256.826 205.234 258.966 207.993C258.997 208.055 259.028 208.111 259.071 208.167C262.189 212.104 266.846 214.361 271.843 214.361C272.674 214.361 273.517 214.293 274.36 214.162L280.858 220.66C281.031 220.834 281.267 220.933 281.515 220.933C281.763 220.933 281.998 220.834 282.172 220.66L290.393 212.439C291.503 211.329 292.11 209.86 292.11 208.291C292.11 206.722 291.503 205.247 290.393 204.143C289.576 203.319 288.559 202.792 287.499 202.563L287.499 202.563ZM284.015 202.867C283.86 202.929 283.711 202.997 283.562 203.077C283.531 203.096 283.494 203.114 283.463 203.133C283.339 203.201 283.215 203.276 283.091 203.35C283.047 203.375 283.004 203.406 282.967 203.43C282.855 203.505 282.744 203.592 282.632 203.672C282.595 203.703 282.552 203.734 282.514 203.765C282.371 203.883 282.229 204.007 282.099 204.143L281.516 204.726L280.933 204.143C280.803 204.013 280.673 203.895 280.536 203.784C280.865 202.234 281.057 200.622 281.107 198.967H286.246C286.172 200.157 285.955 201.329 285.589 202.457C285.056 202.519 284.541 202.649 284.052 202.848C284.04 202.86 284.027 202.86 284.015 202.867ZM257.448 198.967H262.575C262.637 201.062 262.922 203.046 263.381 204.844C262.166 205.26 261.056 205.768 260.064 206.357C258.564 204.237 257.621 201.707 257.448 198.967ZM260.045 189.747C261.044 190.336 262.153 190.851 263.375 191.266C262.922 193.052 262.643 195.023 262.575 197.107H257.448C257.621 194.379 258.558 191.855 260.045 189.747V189.747ZM262.408 187.131C262.526 187.026 262.65 186.92 262.773 186.821C262.866 186.746 262.96 186.678 263.052 186.604C263.139 186.536 263.226 186.468 263.319 186.406C263.437 186.319 263.554 186.232 263.679 186.151C263.747 186.108 263.809 186.058 263.877 186.015C264.02 185.922 264.156 185.829 264.299 185.742C264.348 185.711 264.404 185.68 264.454 185.649C264.609 185.556 264.77 185.463 264.925 185.376C264.968 185.351 265.005 185.333 265.049 185.308C265.216 185.215 265.39 185.128 265.557 185.048C265.594 185.029 265.632 185.01 265.669 184.998C265.842 184.911 266.022 184.831 266.202 184.756C266.239 184.738 266.276 184.725 266.314 184.713C266.376 184.688 266.444 184.663 266.506 184.638C265.458 185.915 264.571 187.565 263.902 189.487C262.928 189.152 262.017 188.761 261.211 188.302C261.54 187.943 261.887 187.602 262.246 187.279C262.302 187.224 262.358 187.181 262.408 187.131ZM277.492 184.756C277.672 184.831 277.852 184.918 278.032 184.998C278.069 185.017 278.106 185.029 278.137 185.048C278.311 185.135 278.484 185.221 278.652 185.315C278.689 185.333 278.732 185.358 278.77 185.376C278.931 185.463 279.092 185.556 279.247 185.649C279.297 185.68 279.346 185.711 279.396 185.742C279.538 185.829 279.681 185.922 279.824 186.015C279.886 186.059 279.954 186.102 280.016 186.145C280.14 186.232 280.264 186.319 280.381 186.406C280.468 186.468 280.555 186.536 280.642 186.604C280.735 186.679 280.828 186.753 280.921 186.827C281.045 186.927 281.162 187.026 281.28 187.131C281.336 187.175 281.386 187.224 281.442 187.268C281.801 187.59 282.148 187.931 282.477 188.291C281.665 188.749 280.76 189.14 279.786 189.475C279.123 187.553 278.236 185.904 277.182 184.627C277.244 184.651 277.313 184.676 277.374 184.701C277.418 184.725 277.455 184.738 277.492 184.756ZM286.253 197.107H281.126C281.064 195.024 280.785 193.058 280.326 191.266C281.547 190.851 282.657 190.336 283.655 189.748C285.143 191.855 286.079 194.379 286.253 197.107V197.107ZM278.72 202.761C278.54 202.699 278.354 202.643 278.168 202.6C278.106 202.588 278.044 202.569 277.988 202.557C277.753 202.507 277.511 202.476 277.269 202.451C277.219 202.445 277.17 202.445 277.12 202.445C276.903 202.433 276.686 202.433 276.475 202.445C276.432 202.445 276.389 202.445 276.345 202.451C276.091 202.47 275.837 202.507 275.583 202.557C275.564 202.563 275.551 202.563 275.533 202.569C275.297 202.619 275.062 202.687 274.832 202.767C274.801 202.78 274.764 202.792 274.733 202.804C274.485 202.898 274.25 203.003 274.014 203.127C274.008 203.133 274.001 203.133 273.995 203.139C273.785 203.257 273.574 203.387 273.375 203.53C273.357 203.542 273.332 203.554 273.313 203.573C273.14 203.567 272.96 203.561 272.786 203.554V198.966H279.265C279.222 200.275 279.092 201.558 278.862 202.798C278.807 202.78 278.763 202.774 278.72 202.761L278.72 202.761ZM270.92 212.353C268.794 211.807 266.915 209.439 265.731 206.097C267.343 205.7 269.098 205.471 270.92 205.409V212.353ZM270.92 190.702C269.091 190.64 267.337 190.405 265.719 190.008C266.903 186.654 268.787 184.267 270.92 183.721V190.702ZM270.92 192.562V197.113L264.441 197.113C264.51 195.228 264.764 193.43 265.185 191.794C266.971 192.24 268.911 192.494 270.92 192.562L270.92 192.562ZM270.92 198.967V203.555C268.918 203.617 266.983 203.877 265.192 204.324C264.77 202.681 264.503 200.87 264.441 198.973H270.92V198.967ZM272.78 197.107V192.556C274.789 192.494 276.73 192.234 278.515 191.787C278.931 193.424 279.191 195.222 279.259 197.107L272.78 197.107ZM272.78 190.702V183.727C274.913 184.273 276.798 186.66 277.982 190.014C276.364 190.411 274.603 190.64 272.78 190.702ZM263.921 206.63C264.584 208.533 265.464 210.17 266.506 211.435C264.491 210.623 262.699 209.377 261.248 207.802C262.048 207.349 262.953 206.965 263.921 206.63H263.921ZM289.086 211.125L281.522 218.689L275.291 212.464L273.952 211.125C273.196 210.369 272.78 209.364 272.78 208.292C272.78 207.219 273.196 206.215 273.952 205.458C274.107 205.303 274.274 205.167 274.448 205.043C274.473 205.024 274.491 205.006 274.516 204.993C274.684 204.875 274.863 204.776 275.05 204.689C275.074 204.677 275.099 204.665 275.13 204.652C275.316 204.566 275.508 204.497 275.707 204.442C275.725 204.435 275.744 204.435 275.762 204.429C275.961 204.374 276.165 204.336 276.376 204.318H276.395C276.593 204.299 276.791 204.299 276.996 204.305C277.033 204.305 277.071 204.305 277.108 204.312C277.294 204.324 277.48 204.355 277.666 204.398C277.709 204.411 277.753 204.417 277.802 204.429C277.988 204.479 278.168 204.535 278.348 204.609C278.379 204.622 278.416 204.64 278.447 204.653C278.639 204.739 278.825 204.833 278.999 204.95C279.222 205.099 279.433 205.267 279.625 205.459L280.865 206.699C281.212 207.046 281.832 207.046 282.18 206.699L283.42 205.459C283.519 205.359 283.618 205.273 283.717 205.186C283.748 205.161 283.779 205.143 283.804 205.118C283.879 205.056 283.959 205 284.04 204.944C284.058 204.932 284.083 204.919 284.102 204.907C284.195 204.851 284.288 204.789 284.38 204.74C284.387 204.733 284.393 204.733 284.399 204.733C285.912 203.952 287.815 204.194 289.08 205.459C289.837 206.215 290.252 207.226 290.252 208.292C290.258 209.364 289.843 210.369 289.086 211.125L289.086 211.125Z" fill="#9AABBC"/>
<path d="M210.308 43H213.602V32.5506H210.308V43ZM211.965 31.4644C213.12 31.4644 213.91 30.6966 213.91 29.7416C213.91 28.7678 213.12 28 211.965 28C210.79 28 210 28.7678 210 29.7416C210 30.6966 210.79 31.4644 211.965 31.4644Z" fill="#9AABBC"/>
<path d="M223.726 43H227V36.8951C227 34.0861 225.344 32.4382 222.859 32.4382C221.414 32.4382 220.258 33.0562 219.604 33.9363V32.5506H216.31V43H219.604V37.3258C219.604 35.9026 220.413 35.1161 221.665 35.1161C222.917 35.1161 223.726 35.9026 223.726 37.3258V43Z" fill="#9AABBC"/>
<path d="M174.998 31.3595C178.119 31.3595 180.637 33.8778 180.637 37C180.637 40.1222 178.119 42.6405 174.998 42.6405C171.876 42.6405 169.358 40.1222 169.358 37C169.358 33.8778 171.876 31.3595 174.998 31.3595ZM174.998 40.6671C177.015 40.6671 178.664 39.0225 178.664 37C178.664 34.9775 177.02 33.3329 174.998 33.3329C172.975 33.3329 171.331 34.9775 171.331 37C171.331 39.0225 172.98 40.6671 174.998 40.6671V40.6671ZM167.812 31.1288C167.812 31.8602 168.401 32.4444 169.128 32.4444C169.859 32.4444 170.443 31.8553 170.443 31.1288C170.443 30.4022 169.854 29.8131 169.128 29.8131C168.401 29.8131 167.812 30.4022 167.812 31.1288ZM164.077 32.464C164.161 30.7017 164.563 29.1406 165.854 27.8544C167.14 26.5682 168.701 26.1657 170.463 26.0773C172.279 25.9742 177.721 25.9742 179.537 26.0773C181.294 26.1608 182.855 26.5633 184.146 27.8495C185.437 29.1357 185.834 30.6968 185.923 32.4591C186.026 34.2755 186.026 39.7196 185.923 41.536C185.839 43.2983 185.437 44.8594 184.146 46.1456C182.855 47.4318 181.299 47.8343 179.537 47.9227C177.721 48.0258 172.279 48.0258 170.463 47.9227C168.701 47.8392 167.14 47.4367 165.854 46.1456C164.568 44.8594 164.166 43.2983 164.077 41.536C163.974 39.7196 163.974 34.2804 164.077 32.464V32.464ZM166.423 43.4849C166.806 44.4471 167.547 45.1883 168.514 45.5761C169.962 46.1505 173.398 46.018 174.998 46.018C176.598 46.018 180.038 46.1456 181.481 45.5761C182.443 45.1932 183.184 44.452 183.572 43.4849C184.146 42.0367 184.013 38.6004 184.013 37C184.013 35.3996 184.141 31.9584 183.572 30.5151C183.189 29.5529 182.448 28.8117 181.481 28.4239C180.033 27.8495 176.598 27.982 174.998 27.982C173.398 27.982 169.957 27.8544 168.514 28.4239C167.552 28.8068 166.811 29.548 166.423 30.5151C165.849 31.9633 165.982 35.3996 165.982 37C165.982 38.6004 165.849 42.0416 166.423 43.4849Z" fill="#9AABBC"/>
<path d="M270.536 25H252.464C251.104 25 250 26.0558 250 27.3571V44.6429C250 45.9442 251.104 47 252.464 47H270.536C271.896 47 273 45.9442 273 44.6429V27.3571C273 26.0558 271.896 25 270.536 25ZM268.025 32.7982C268.035 32.9357 268.035 33.0781 268.035 33.2156C268.035 37.4732 264.647 42.379 258.456 42.379C256.546 42.379 254.775 41.8487 253.286 40.9353C253.558 40.9647 253.82 40.9746 254.097 40.9746C255.673 40.9746 257.121 40.4638 258.276 39.5996C256.797 39.5701 255.555 38.642 255.129 37.3652C255.647 37.4388 256.115 37.4388 256.648 37.3063C255.108 37.0067 253.953 35.7103 253.953 34.1437V34.1045C254.4 34.3451 254.923 34.4924 255.473 34.5121C255.011 34.2182 254.632 33.8196 254.371 33.3517C254.109 32.8839 253.973 32.3614 253.974 31.8308C253.974 31.2317 254.138 30.6817 254.431 30.2054C256.089 32.1598 258.579 33.4366 261.372 33.5741C260.894 31.3888 262.604 29.6161 264.657 29.6161C265.628 29.6161 266.5 30.004 267.117 30.6326C267.876 30.4951 268.605 30.225 269.252 29.8567C269.001 30.6031 268.472 31.2317 267.774 31.6295C268.451 31.5607 269.108 31.379 269.714 31.1286C269.257 31.7719 268.682 32.3415 268.025 32.7982Z" fill="#9AABBC"/>
<path d="M313.643 25C314.298 25 314.854 25.2292 315.312 25.6875C315.771 26.1458 316 26.7024 316 27.3571V44.6429C316 45.2976 315.771 45.8542 315.312 46.3125C314.854 46.7708 314.298 47 313.643 47H306.915V39.5357H309.763L310.304 36H306.915V33.692C306.915 32.4479 307.57 31.8259 308.879 31.8259H310.402V28.8304C309.485 28.6667 308.585 28.5848 307.701 28.5848C306.751 28.5848 305.933 28.7649 305.246 29.125C304.591 29.4851 304.067 30.0253 303.674 30.7455C303.281 31.4658 303.085 32.317 303.085 33.2991V36H299.991V39.5357H303.085V47H296.357C295.702 47 295.146 46.7708 294.687 46.3125C294.229 45.8542 294 45.2976 294 44.6429V27.3571C294 26.7024 294.229 26.1458 294.687 25.6875C295.146 25.2292 295.702 25 296.357 25H313.643Z" fill="#9AABBC"/>
<path d="M60.3348 24.6892L60.3331 24.6875C57.849 22.2505 54.5665 20.89 51.096 20.89C48.1155 20.89 45.3138 21.8769 43 23.6736C40.6861 21.8769 37.8845 20.89 34.904 20.89C31.4334 20.89 28.1509 22.2505 25.6669 24.6875L25.6669 24.6875L25.6652 24.6892C23.1806 27.1739 21.8201 30.4572 21.8201 33.928C21.8201 37.3985 23.1805 40.6811 25.6176 43.1651L25.6193 43.1668L29.7593 47.3068C30.457 48.0045 31.3519 48.3 32.236 48.3H32.2412C32.2711 48.3 32.3038 48.3 32.3375 48.2994C32.3233 49.2229 32.6338 50.1352 33.3473 50.8489L33.3473 50.8489C33.9947 51.4963 34.8873 51.8421 35.7781 51.8421H35.7833C35.8058 51.8421 35.8298 51.8421 35.8547 51.8418C35.852 51.8661 35.8502 51.8908 35.8502 51.9142C35.8502 52.8525 36.1973 53.7008 36.8927 54.3483C37.5887 55.0425 38.4815 55.3382 39.3202 55.3382H39.3254C39.3479 55.3382 39.3719 55.3382 39.3968 55.338C39.3941 55.3623 39.3923 55.3869 39.3923 55.4103C39.3923 56.3518 39.7414 57.197 40.4315 57.8871C41.1292 58.5848 42.0241 58.8803 42.9083 58.8803C43.8008 58.8803 44.6891 58.5336 45.3784 57.8935L45.3785 57.8936L45.3848 57.8874L60.2888 43.0294L60.289 43.0291C62.7745 40.5437 64.0874 37.261 64.0882 33.7938C64.181 30.4556 62.8171 27.1716 60.3348 24.6892ZM27.0308 26.0088L27.0308 26.0088C29.1458 23.8937 31.9803 22.7239 34.95 22.7239C37.3705 22.7239 39.6679 23.5131 41.6029 24.9348C40.245 26.2554 33.8809 32.6196 32.6768 33.8236L32.6572 33.8432C32.172 34.3284 31.9465 34.9274 31.9924 35.5506C32.038 36.1692 32.3487 36.7862 32.8872 37.3248L32.8872 37.3249C33.2079 37.6455 33.6206 37.9289 34.0976 38.1529L29.8051 42.4453C29.4229 42.8275 29.1294 43.3254 28.9686 43.8311L27.0308 41.8932L26.854 42.07L27.0308 41.8932C24.9161 39.7786 23.7459 36.9442 23.7459 33.928C23.7459 30.9129 24.9152 28.1243 27.0308 26.0088ZM33.4391 46.0791C32.8814 46.6369 32.0538 46.7073 31.4279 46.2903L31.2167 46.0791L31.1737 46.0361C30.5775 45.3974 30.5783 44.4492 31.2167 43.8108L31.2168 43.8108L31.2191 43.8084L36.2026 38.6889C37.4286 38.7104 38.7407 38.3109 39.8648 37.1868L43.1946 33.857C44.5457 35.028 45.9533 35.7394 47.3365 35.9237C49.1262 36.1656 50.7639 35.5319 52.1436 34.1999L52.1437 34.1999L52.1468 34.1968C52.5204 33.8232 52.5204 33.2509 52.1468 32.8773C51.7732 32.5037 51.2009 32.5037 50.8273 32.8773C49.8598 33.8448 48.7853 34.2652 47.5899 34.0947C46.4187 33.9209 45.0854 33.1759 43.8208 31.9113C43.4599 31.5504 42.834 31.5227 42.494 31.9186L38.5453 35.8673C37.7297 36.683 36.8403 36.8927 35.987 36.8073L35.9746 36.806H35.9621H35.794C35.129 36.7191 34.5439 36.3853 34.1676 36.012C34.039 35.8609 33.9326 35.7015 33.8909 35.5556C33.8538 35.4259 33.8677 35.3178 33.9768 35.2088C33.9768 35.2088 33.9768 35.2088 33.9768 35.2088L39.0368 30.1487L41.8816 27.3039L42.7902 26.3953L43.0421 26.1434L43.1081 26.0774L43.125 26.0605L43.1293 26.0562L43.1304 26.0551L43.1307 26.0549C43.1307 26.0548 43.1308 26.0548 42.954 25.878L43.1308 26.0548C45.2458 23.9397 48.0803 22.7699 51.05 22.7699C54.0651 22.7699 56.8537 23.9392 58.9692 26.0548C61.0842 28.1698 62.2541 31.0043 62.254 33.974L62.2541 33.9778C62.299 36.9448 61.1305 39.778 59.0152 41.8932L44.1112 56.7972C43.4748 57.4336 42.4872 57.4356 41.8487 56.8031C41.5681 56.4796 41.41 56.0798 41.41 55.64C41.41 55.1958 41.5702 54.8082 41.8766 54.54L41.8828 54.5345L41.8887 54.5287L49.2486 47.1687C49.6222 46.7951 49.6223 46.2227 49.2486 45.8491C48.8751 45.4755 48.3027 45.4755 47.9291 45.8491L40.5691 53.2091C39.9308 53.8475 38.9391 53.8475 38.3008 53.2091C37.9781 52.8865 37.8221 52.4895 37.8221 52.0978C37.8221 51.6536 37.9823 51.2661 38.2887 50.9979L38.2949 50.9924L38.3008 50.9865L45.6608 43.6265C46.0344 43.2529 46.0344 42.6806 45.6608 42.307C45.2872 41.9334 44.7148 41.9334 44.3412 42.307L36.9813 49.667C36.6586 49.9897 36.2616 50.1457 35.87 50.1457C35.4257 50.1457 35.0382 49.9855 34.77 49.6791L34.7645 49.6729L34.7587 49.667C34.1203 49.0287 34.1203 48.037 34.7587 47.3987L42.1187 40.0387C42.4922 39.6651 42.4923 39.0927 42.1186 38.7191C41.7451 38.3455 41.1727 38.3455 40.7991 38.7191L33.4391 46.0791Z" fill="#9AABBC" stroke="#9AABBC" stroke-width="0.5"/>
</svg>
